<svg t="1669380656229" class="icon" viewBox="0 0 1024 1024" version="1.1" xmlns="http://www.w3.org/2000/svg" p-id="5021" width="200" height="200"><path d="M812.01718672 887.00203145a37.49898427 37.49898427 0 0 1 4.38738135 74.73547529l-4.38738135 0.26249326h-599.9837502a37.49898427 37.49898427 0 0 1-4.34988193-74.73547617L211.99593799 887.00203145h599.98375019zM540.11205107 74.58653427l2.99991885 3.86239483 181.68257901 267.18026397 174.33277909-161.13313565c24.33684112-22.49939092 62.13581719-4.57487578 62.99829317 26.02429541L961.97562529 214.57024297l-0.56248417 4.19988604-103.12220743 562.48476591a37.49898427 37.49898427 0 0 1-32.39912285 30.48667471l-4.49987784 0.26249238h-618.73324277a37.49898427 37.49898427 0 0 1-35.81152997-26.39928428l-1.0499713-4.34988281-103.12220742-562.48476591c-6.26233008-34.0115792 32.54911875-56.88595898 59.09839981-36.97399864l3.22491269 2.69992705 174.25778028 161.13313565L481.05115068 78.4489291a37.49898427 37.49898427 0 0 1 59.02340185-3.86239482zM511.98781308 166.15905401L336.792558 423.81457578a37.49898427 37.49898427 0 0 1-52.9485662 9.29974834l-3.48740596-2.84992295-123.6716499-114.33440302L233.93284385 737.00609346h556.18493642l77.24790791-421.07609531L743.73153682 430.26440117a37.49898427 37.49898427 0 0 1-50.62362891 0.2999918l-3.07491679-3.14991475-2.73742648-3.59990244L511.98781308 166.15905401z" p-id="5022"></path><path d="M587.02328106 587.01015635a37.49898427 37.49898427 0 0 1 4.38738046 74.73547529l-4.38738047 0.26249326h-149.99593798a37.49898427 37.49898427 0 0 1-4.34988194-74.73547617L436.98984365 587.01015635h149.99593799z" p-id="5023"></path></svg>
