<svg t="1669380596418" class="icon" viewBox="0 0 1024 1024" version="1.1" xmlns="http://www.w3.org/2000/svg" p-id="4866" width="200" height="200"><path d="M872 315.19970703H152A90 90 0 0 0 62 405.19970703V872A90 90 0 0 0 152 962h720A90 90 0 0 0 962 872V405.19970703a90 90 0 0 0-90-90zM901.99970703 872a29.99970703 29.99970703 0 0 1-29.99970703 29.99970703H152A29.99970703 29.99970703 0 0 1 122.00029297 872V405.19970703a29.99970703 29.99970703 0 0 1 29.99970703-29.99970703h720a29.99970703 29.99970703 0 0 1 29.99970703 29.99970703z" p-id="4867"></path><path d="M631.99970703 636.80029297h-90V602h70.2a29.99970703 29.99970703 0 1 0 0-60.00029297h-29.39941406l43.2-44.39970703a29.99970703 29.99970703 0 1 0-43.2-42.00029297L512 528.2l-71.39970703-73.19970703a29.99970703 29.99970703 0 0 0-43.2 41.99941406l43.79941406 45h-29.39941406a29.99970703 29.99970703 0 1 0 0 60.00029297h70.2v35.39970703h-90a29.99970703 29.99970703 0 1 0 0 60.00029297h90v105.00029297a29.99970703 29.99970703 0 0 0 59.99941406 0V696.79882813h90a29.99970703 29.99970703 0 1 0 0-59.99941407z m-478.19970703-384.60058594h720a29.99970703 29.99970703 0 0 0 0-59.99941406h-720a29.99970703 29.99970703 0 0 0 0 59.99941406z m58.20029297-130.19941406h599.99941406a29.99970703 29.99970703 0 0 0 0-60.00029297H212.00029297a29.99970703 29.99970703 0 0 0 0 60.00029297z" p-id="4868"></path></svg>
