<?xml version="1.0" standalone="no"?><!DOCTYPE svg PUBLIC "-//W3C//DTD SVG 1.1//EN" "http://www.w3.org/Graphics/SVG/1.1/DTD/svg11.dtd"><svg class="icon" width="64px" height="64.00px" viewBox="0 0 1024 1024" version="1.1" xmlns="http://www.w3.org/2000/svg"><path fill="#f0f0f0" d="M512 1005.929412C240.941176 1005.929412 18.070588 783.058824 18.070588 512 18.070588 240.941176 240.941176 18.070588 512 18.070588 783.058824 18.070588 1005.929412 240.941176 1005.929412 512c0 271.058824-222.870588 493.929412-493.929412 493.929412z m0-942.682353C265.035294 63.247059 63.247059 265.035294 63.247059 512S265.035294 960.752941 512 960.752941 960.752941 758.964706 960.752941 512 758.964706 63.247059 512 63.247059z m168.658824 533.082353c18.070588 0 30.117647 15.058824 30.117647 30.117647 0 18.070588-15.058824 30.117647-30.117647 30.117647H542.117647v81.317647c0 18.070588-15.058824 30.117647-30.117647 30.117647-18.070588 0-30.117647-15.058824-30.117647-30.117647v-81.317647h-138.541177c-18.070588 0-30.117647-15.058824-30.117647-30.117647 0-18.070588 15.058824-30.117647 30.117647-30.117647H481.882353v-72.282353h-138.541177c-18.070588 0-30.117647-15.058824-30.117647-30.117647 0-18.070588 15.058824-30.117647 30.117647-30.117647H481.882353v-15.058824l-144.564706-144.564706c-12.047059-12.047059-12.047059-33.129412 0-45.17647 12.047059-12.047059 33.129412-12.047059 45.176471 0L512 391.529412l129.505882-129.505883c12.047059-12.047059 33.129412-12.047059 45.176471 0 12.047059 12.047059 12.047059 33.129412 0 45.176471L542.117647 448.752941v15.058824h138.541177c18.070588 0 30.117647 15.058824 30.117647 30.117647 0 18.070588-15.058824 30.117647-30.117647 30.117647H542.117647v72.282353h138.541177z"  /></svg>