<?xml version="1.0" standalone="no"?><!DOCTYPE svg PUBLIC "-//W3C//DTD SVG 1.1//EN" "http://www.w3.org/Graphics/SVG/1.1/DTD/svg11.dtd"><svg class="icon" width="64px" height="64.00px" viewBox="0 0 1024 1024" version="1.1" xmlns="http://www.w3.org/2000/svg"><path fill="#f0f0f0" d="M486.4 486.4v102.4H341.35c-18.892 0-34.15 11.469-34.15 25.6s15.258 25.6 34.15 25.6H486.4v117.76c0 19.814 11.469 35.84 25.6 35.84s25.6-16.026 25.6-35.84V640h145.05c18.892 0 34.15-11.469 34.15-25.6s-15.258-25.6-34.15-25.6H537.6V486.4h145.05c18.892 0 34.15-11.469 34.15-25.6s-15.258-25.6-34.15-25.6H548.198l135.527-135.475a25.6 25.6 0 1 0-36.25-36.25L512 399.002 376.525 263.475a25.6 25.6 0 1 0-36.25 36.25L475.802 435.2H341.35c-18.892 0-34.15 11.469-34.15 25.6s15.258 25.6 34.15 25.6H486.4zM512 1024C229.222 1024 0 794.778 0 512S229.222 0 512 0s512 229.222 512 512-229.222 512-512 512z" /></svg>