<?xml version="1.0" standalone="no"?><!DOCTYPE svg PUBLIC "-//W3C//DTD SVG 1.1//EN" "http://www.w3.org/Graphics/SVG/1.1/DTD/svg11.dtd"><svg class="icon" width="200px" height="200.00px" viewBox="0 0 1024 1024" version="1.1" xmlns="http://www.w3.org/2000/svg"><path d="M768 244.363636h-74.472727l55.854545-86.109091c11.636364-16.290909 6.981818-37.236364-9.309091-48.872727s-37.236364-6.981818-48.872727 9.309091l-83.781818 123.345455h-195.490909l-83.781818-123.345455c-11.636364-16.290909-32.581818-20.945455-48.872728-9.309091-16.290909 11.636364-20.945455 32.581818-9.309091 48.872727l55.854546 86.109091h-69.818182c-95.418182 0-174.545455 79.127273-174.545455 174.545455v325.818182c0 95.418182 79.127273 174.545455 174.545455 174.545454h512c95.418182 0 174.545455-79.127273 174.545455-174.545454V418.909091c0-95.418182-79.127273-174.545455-174.545455-174.545455zM872.727273 744.727273c0 58.181818-46.545455 104.727273-104.727273 104.727272H256c-58.181818 0-104.727273-46.545455-104.727273-104.727272V418.909091c0-58.181818 46.545455-104.727273 104.727273-104.727273h512c58.181818 0 104.727273 46.545455 104.727273 104.727273v325.818182z m-223.418182-190.836364l-232.727273-162.909091c-11.636364-6.981818-25.6-9.309091-37.236363-2.327273-11.636364 6.981818-18.618182 18.618182-18.618182 30.254546v325.818182c0 13.963636 6.981818 25.6 18.618182 30.254545 4.654545 2.327273 11.636364 4.654545 16.290909 4.654546 6.981818 0 13.963636-2.327273 20.945454-6.981819l232.727273-162.90909c9.309091-6.981818 13.963636-16.290909 13.963636-27.927273s-4.654545-20.945455-13.963636-27.927273z m-218.763636 123.345455v-190.836364l137.30909 95.418182-137.30909 95.418182z" /></svg>