<?xml version="1.0" standalone="no"?><!DOCTYPE svg PUBLIC "-//W3C//DTD SVG 1.1//EN" "http://www.w3.org/Graphics/SVG/1.1/DTD/svg11.dtd"><svg class="icon" width="200px" height="200.00px" viewBox="0 0 1024 1024" version="1.1" xmlns="http://www.w3.org/2000/svg"><path d="M781.973758 243.609297c-51.747571-51.747571-135.647423-51.747571-187.394994 0s-51.747571 135.647423 0 187.394994c51.747571 51.747571 135.647423 51.747571 187.394994 0S833.721329 295.356868 781.973758 243.609297zM643.24823 382.996904c-25.600051-25.600051-25.600051-67.104327 0-92.704378 25.600051-25.600051 67.104327-25.600051 92.704378 0 25.600051 25.600051 25.600051 67.104327 0 92.704378C710.352557 408.596955 668.848281 408.596955 643.24823 382.996904z"  /><path d="M956.598914 266.026866l0-49.822732 0 0L956.598914 109.291149c0-22.916942-18.750039-41.668005-41.666982-41.666982l-404.933519 0c-12.592806 0-23.919782 5.669116-31.576159 14.572904L76.771501 483.8468c-16.205077 16.205077-16.205077 42.72201 0 58.927087l404.676669 404.676669c16.205077 16.205077 42.72201 16.205077 58.927087 0l369.331673-369.331673c0.571005-0.533143 1.122567-1.084705 1.655709-1.655709l0.768503-0.768503c-0.022513-0.00307-0.045025-0.00614-0.067538-0.00921 5.174859-5.904477 8.318456-13.634532 8.318456-22.102391 0-18.533099-15.024182-33.55728-33.55728-33.55728-11.698436 0-21.992897 5.989411-27.999704 15.065114L540.933983 852.983022c-16.205077 16.205077-42.72201 16.205077-58.927087 0L171.625846 542.601972c-16.205077-16.205077-16.205077-42.72201 0-58.927087l333.961094-333.961094c0.064468-0.064468 0.132006-0.122797 0.197498-0.187265 7.568373-7.673773 18.066471-12.45159 29.628808-12.45159l310.237787 0c22.916942 0 41.666982 18.750039 41.666982 41.666982l0 93.139284 0 0L887.318014 456.663694c0.002047-0.001023 0.00307-0.002047 0.005117-0.00307 0 0.069585-0.005117 0.138146-0.005117 0.207731 0 19.130709 15.509229 34.639938 34.639938 34.639938 18.283412 0 33.247218-14.167674 34.538631-32.121582 0.033769 0.023536 0.067538 0.045025 0.101307 0.068562L956.597891 276.750091C957.144336 273.197172 957.152523 269.577738 956.598914 266.026866z"  /></svg>