<svg t="1652265352760" class="icon" viewBox="0 0 1044 1024" version="1.1" xmlns="http://www.w3.org/2000/svg" p-id="10049" width="64" height="64"><path d="M565.5552 860.16v163.84h-81.92v-163.84h81.92zM249.4464 729.23136l57.93792 57.91744-115.85536 115.85536-57.93792-57.93792 115.85536-115.83488z m550.2976 0l115.85536 115.83488-57.91744 57.93792-115.85536-115.85536 57.91744-57.91744zM524.5952 245.76c147.0464 0 266.24 119.1936 266.24 266.24s-119.1936 266.24-266.24 266.24-266.24-119.1936-266.24-266.24 119.1936-266.24 266.24-266.24z m0 81.92a184.32 184.32 0 1 0 0 368.64 184.32 184.32 0 0 0 0-368.64z m512 143.36v81.92h-163.84v-81.92h163.84z m-860.16 0v81.92h-163.84v-81.92h163.84zM860.7744 117.90336l57.93792 57.93792-115.85536 115.85536-57.91744-57.93792 115.83488-115.85536z m-672.31744 0l115.85536 115.85536-57.93792 57.93792-115.83488-115.85536L188.416 117.90336zM565.5552 0v163.84h-81.92V0h81.92z" p-id="10050"></path></svg>
