<svg t="1652553051385" class="icon" viewBox="0 0 1024 1024" version="1.1" xmlns="http://www.w3.org/2000/svg" p-id="3559" width="64" height="64"><path d="M514.1725891 837.88839531c-180.32491228 0-325.88839531-145.56348303-325.88839531-325.88839531S333.84767743 186.11160469 512 186.11160469c86.90357187 0 167.28937646 34.76142863 228.12187672 95.5939295 60.83250025 60.83250025 93.42133979 143.39089394 93.42133978 230.29446581v2.1725891c0 47.79696443-13.03553581 95.5939295-36.93401772 128.18276902-23.89848252 34.76142863-56.48732206 54.31473234-91.24875069 54.31473236h-2.17258972c-34.76142863 0-63.00508997-21.72589282-80.38580397-60.83250027-28.24366072 39.10660744-69.52285787 60.83250025-112.9746435 60.83250027h-2.17258971c-39.10660744 0-76.04062578-19.55330372-102.11169678-49.96955355-26.07107163-32.58883953-41.27919653-73.86803606-41.27919716-117.31982231 2.1725891-91.24875068 67.35026816-162.94419766 147.73607275-162.94419765h2.1725891c34.76142863 0 60.83250025 15.20812491 91.24875069 39.10660744v-15.20812553c0-17.38071462 13.03553581-17.38071462 17.38071461-17.38071401h10.86294672c6.5177679 0 21.72589282 0 21.72589282 17.38071401v132.52794783c0 71.69544697 19.55330372 119.49241141 49.96955415 119.49241141 34.76142863 0 73.86803606-54.31473234 73.86803606-132.52794722 0-149.90866184-121.66500113-271.57366297-271.57366296-271.57366295S242.59892675 362.09133816 242.59892675 512s121.66500113 271.57366297 271.57366235 271.57366297c30.41625044 0 60.83250025-4.34517881 91.24875069-15.20812554 10.86294671-4.34517881 13.03553581-6.5177679 13.0355358-6.5177679 4.34517881-2.1725891 6.5177679-2.1725891 10.86294672-2.1725891 10.86294671 0 19.55330372 6.5177679 23.89848252 13.03553582l2.17258911 4.34517882c2.1725891 6.5177679 4.34517881 13.03553581 2.17258909 19.5533037-2.1725891 6.5177679-6.5177679 10.86294671-13.03553581 13.03553582 0 0-8.69035701 4.34517881-23.89848191 8.690357-34.76142863 13.03553581-69.52285787 19.55330372-106.45687621 19.55330372z m0-421.48232481C464.20303557 416.4060705 425.09642813 468.54821375 425.09642813 533.72589282s41.27919653 115.14723321 89.07616097 115.14723321 89.0761616-52.14214326 89.07616158-115.14723321-39.10660744-117.31982231-89.07616158-117.31982232z" fill="#666666" p-id="3560"></path></svg>
