<svg xml:space="preserve" style="enable-background:new 0 0 1024 1024;" viewBox="0 0 1024 1024" y="0px" x="0px" xmlns:xlink="http://www.w3.org/1999/xlink" xmlns="http://www.w3.org/2000/svg" id="图层_1" version="1.1">
<style type="text/css">
	.st0{fill:url(#SVGID_1_);}
	.st1{fill:url(#SVGID_2_);}
	.st2{fill:url(#SVGID_3_);}
	.st3{fill:url(#SVGID_4_);}
	.st4{opacity:0.6;}
	.st5{fill:#7AA1F8;}
	.st6{fill:url(#SVGID_5_);}
	.st7{fill:url(#SVGID_6_);stroke:url(#SVGID_7_);stroke-miterlimit:10;}
	.st8{fill:url(#SVGID_8_);}
	.st9{fill:url(#SVGID_9_);}
	.st10{fill:url(#SVGID_10_);}
	.st11{fill:url(#SVGID_11_);stroke:#FFFFFF;stroke-width:3;stroke-miterlimit:10;}
	.st12{fill:#272B73;}
	.st13{fill-rule:evenodd;clip-rule:evenodd;fill:#F5986A;}
	.st14{fill-rule:evenodd;clip-rule:evenodd;fill:#F8AD72;}
	.st15{fill-rule:evenodd;clip-rule:evenodd;fill:#272B73;}
	.st16{fill-rule:evenodd;clip-rule:evenodd;fill:#262A71;}
	.st17{fill-rule:evenodd;clip-rule:evenodd;fill:#151145;}
	.st18{fill-rule:evenodd;clip-rule:evenodd;fill:#27327B;}
	.st19{fill-rule:evenodd;clip-rule:evenodd;fill:#2B3682;}
	.st20{fill-rule:evenodd;clip-rule:evenodd;fill:#F48D67;}
	.st21{fill-rule:evenodd;clip-rule:evenodd;fill:#7AA1F8;}
	.st22{fill-rule:evenodd;clip-rule:evenodd;fill:#2B72D8;}
	.st23{fill-rule:evenodd;clip-rule:evenodd;fill:#EF8D61;}
</style>
    <linearGradient y2="844.5875" x2="512.3846" y1="492.4675" x1="512.3846" gradientUnits="userSpaceOnUse" id="SVGID_1_">
	<stop style="stop-color:#D0DDF8" offset="4.528621e-07"></stop>
        <stop style="stop-color:#FFFFFF" offset="1"></stop>
</linearGradient>
    <ellipse ry="176.06" rx="370.98" cy="668.53" cx="512.38" class="st0"></ellipse>
    <linearGradient y2="554.438" x2="647.7106" y1="769.6872" x1="771.9848" gradientUnits="userSpaceOnUse" id="SVGID_2_">
	<stop style="stop-color:#FFFFFF;stop-opacity:0" offset="0"></stop>
        <stop style="stop-color:#9DB9E0" offset="1"></stop>
</linearGradient>
    <polygon points="845.98,726.97 687.92,794.97 584.44,590.97 606.9,586.84" class="st1"></polygon>
    <linearGradient y2="628.5779" x2="438.2674" y1="734.0274" x1="438.2674" gradientUnits="userSpaceOnUse" id="SVGID_3_">
	<stop style="stop-color:#FFFFFF;stop-opacity:0" offset="0"></stop>
        <stop style="stop-color:#9DB9E0" offset="1"></stop>
</linearGradient>
    <polygon points="492.94,721.61 433.56,734.03 383.6,628.58 408.51,638.99" class="st2"></polygon>
    <linearGradient y2="561.2625" x2="512.3846" y1="177.874" x1="512.3846" gradientUnits="userSpaceOnUse" id="SVGID_4_">
	<stop style="stop-color:#D0DDF8" offset="4.528621e-07"></stop>
        <stop style="stop-color:#FFFFFF;stop-opacity:0" offset="1"></stop>
</linearGradient>
    <path d="M728.91,228.6v332.66H295.86c0.72-165.43,1.39-190.87,2.12-356.36h96.99c0.18,29.51,0.18,42.33,0,42.81v0.06
	c0,0,0.12-0.06,0.18-0.12v-0.18c0-8.71,7.01-15.72,15.72-15.72c8.71,0,15.72,7.01,15.72,15.72v9.31h69.29v-78.91h62.16v113.74
	c-0.06,0.24-0.06,0.42-0.06,0.67v38.27c0,5.62,4.53,10.16,10.16,10.16c5.56,0,10.1-4.53,10.1-10.16v-29.81
	c19.53-0.06,33.68-0.12,43.05-0.12c9.37,0,13.97,0.06,14.39,0.12c1.51-0.18,0-23.1,0-23.1h29.57v27.15c0,4.11,3.33,7.44,7.44,7.44
	c4.11,0,7.44-3.33,7.44-7.44V228.6H728.91z" class="st3"></path>
    <g class="st4">
	<g>
		<path d="M326.97,211.29c-6.42,0-11.65-5.22-11.65-11.65s5.22-11.65,11.65-11.65s11.65,5.22,11.65,11.65
			S333.39,211.29,326.97,211.29z M326.97,194.47c-2.85,0-5.17,2.32-5.17,5.17c0,2.85,2.32,5.17,5.17,5.17
			c2.85,0,5.17-2.32,5.17-5.17C332.14,196.79,329.82,194.47,326.97,194.47z" class="st5"></path>
	</g>
        <g>
		<circle r="8.41" cy="380.94" cx="324.87" class="st5"></circle>
	</g>
        <g>
		<circle r="17.62" cy="486.75" cx="649.28" class="st5"></circle>
	</g>
        <g>
		<circle r="6.95" cy="305.12" cx="633.56" class="st5"></circle>
	</g>
        <g>
		<circle r="5.99" cy="250.08" cx="733.74" class="st5"></circle>
	</g>
        <g>
		<circle r="8.28" cy="386.23" cx="797.81" class="st5"></circle>
	</g>
        <g>
		<circle r="7.83" cy="620.75" cx="679.65" class="st5"></circle>
	</g>
        <g>
		<path d="M569.48,219.69c-6.42,0-11.65-5.22-11.65-11.65s5.22-11.65,11.65-11.65s11.65,5.22,11.65,11.65
			S575.9,219.69,569.48,219.69z M569.48,202.88c-2.85,0-5.17,2.32-5.17,5.17c0,2.85,2.32,5.17,5.17,5.17c2.85,0,5.17-2.32,5.17-5.17
			C574.65,205.2,572.33,202.88,569.48,202.88z" class="st5"></path>
	</g>
        <g>
		<path d="M453.32,677.46c-6.42,0-11.65-5.22-11.65-11.65s5.22-11.65,11.65-11.65s11.65,5.22,11.65,11.65
			S459.74,677.46,453.32,677.46z M453.32,660.64c-2.85,0-5.17,2.32-5.17,5.17c0,2.85,2.32,5.17,5.17,5.17
			c2.85,0,5.17-2.32,5.17-5.17C458.49,662.96,456.17,660.64,453.32,660.64z" class="st5"></path>
	</g>
        <g>
		<path d="M244.71,484.63h-22.48c-1.96,0-3.55-1.59-3.55-3.55l0,0c0-1.96,1.59-3.55,3.55-3.55h22.48
			c1.96,0,3.55,1.59,3.55,3.55l0,0C248.26,483.04,246.67,484.63,244.71,484.63z" class="st5"></path>
	</g>
        <g>
		<path d="M229.78,492.18v-22.2c0-2.04,1.65-3.69,3.69-3.69l0,0c2.04,0,3.69,1.65,3.69,3.69v22.2
			c0,2.04-1.65,3.69-3.69,3.69l0,0C231.43,495.87,229.78,494.22,229.78,492.18z" class="st5"></path>
	</g>
        <g>
		<path d="M244.79,333.46h-14.6c-1.27,0-2.3-1.03-2.3-2.3l0,0c0-1.27,1.03-2.3,2.3-2.3h14.6c1.27,0,2.3,1.03,2.3,2.3
			l0,0C247.09,332.43,246.06,333.46,244.79,333.46z" class="st5"></path>
	</g>
        <g>
		<path d="M235.09,338.36v-14.41c0-1.32,1.07-2.4,2.4-2.4l0,0c1.32,0,2.4,1.07,2.4,2.4v14.41c0,1.32-1.07,2.4-2.4,2.4
			l0,0C236.17,340.76,235.09,339.68,235.09,338.36z" class="st5"></path>
	</g>
        <g>
		<path d="M435.92,289.51c-6.67-9.69-13.34-19.37-20.01-29.06c1.13-2.15,2.26-4.3,3.39-6.44
			c4.97,0.26,9.95,0.53,14.92,0.79C434.79,266.37,435.35,277.94,435.92,289.51z" class="st5"></path>
	</g>
        <g>
		<path d="M428.51,293.91c-9.25-1.7-18.49-3.41-27.74-5.11c-0.57-1.85-1.15-3.71-1.73-5.56
			c2.96-2.66,5.92-5.33,8.88-7.99C414.79,281.47,421.65,287.69,428.51,293.91z" class="st5"></path>
	</g>
        <g>
		<path d="M440.51,284.91c0.69-8.3,1.39-16.6,2.08-24.9c1.58-0.67,3.17-1.34,4.75-2.01c2.61,2.38,5.21,4.76,7.82,7.13
			C450.28,271.72,445.39,278.31,440.51,284.91z" class="st5"></path>
	</g>
</g>
    <linearGradient y2="608.8981" x2="586.5389" y1="390.545" x1="460.4727" gradientUnits="userSpaceOnUse" id="SVGID_5_">
	<stop style="stop-color:#DFE7F8" offset="4.475343e-07"></stop>
        <stop style="stop-color:#7AA1F8" offset="1"></stop>
</linearGradient>
    <path d="M606.26,583.17l-38.75-54.88c15.5-15.88,25.08-37.59,25.08-61.48c0-48.57-39.51-88.08-88.08-88.08
	s-88.08,39.51-88.08,88.08s39.51,88.08,88.08,88.08c16.48,0,31.91-4.55,45.12-12.46l38.04,53.87c2.22,3.14,5.74,4.82,9.31,4.82
	c2.27,0,4.56-0.68,6.56-2.08C608.66,595.41,609.89,588.31,606.26,583.17z M439.19,466.81c0-36.02,29.3-65.32,65.32-65.32
	s65.32,29.3,65.32,65.32s-29.3,65.32-65.32,65.32S439.19,502.83,439.19,466.81z" class="st6"></path>
    <linearGradient y2="364.0728" x2="533.754" y1="290.0467" x1="491.015" gradientUnits="userSpaceOnUse" id="SVGID_6_">
	<stop style="stop-color:#CEDBF8" offset="4.475343e-07"></stop>
        <stop style="stop-color:#92B2F8" offset="1"></stop>
</linearGradient>
    <linearGradient y2="302.1593" x2="512.3846" y1="365.8564" x1="512.3846" gradientUnits="userSpaceOnUse" id="SVGID_7_">
	<stop style="stop-color:#FFFFFF;stop-opacity:0" offset="0"></stop>
        <stop style="stop-color:#9DB9E0" offset="1"></stop>
</linearGradient>
    <path d="M549.05,302.66h-73.34c-13.48,0-24.4,10.92-24.4,24.4s10.92,24.4,24.4,24.4h25.66l9.94,13.36
	c0.53,0.72,1.61,0.72,2.14,0l9.94-13.36h25.66c13.48,0,24.4-10.92,24.4-24.4S562.53,302.66,549.05,302.66z" class="st7"></path>
    <g>
	<linearGradient y2="327.0598" x2="498.9231" y1="327.0598" x1="487.935" gradientUnits="userSpaceOnUse" id="SVGID_8_">
		<stop style="stop-color:#D0DDF8" offset="4.528621e-07"></stop>
        <stop style="stop-color:#FFFFFF" offset="1"></stop>
	</linearGradient>
        <circle r="5.49" cy="327.06" cx="493.43" class="st8"></circle>
        <linearGradient y2="327.0598" x2="518.2289" y1="327.0598" x1="507.2408" gradientUnits="userSpaceOnUse" id="SVGID_9_">
		<stop style="stop-color:#D0DDF8" offset="4.528621e-07"></stop>
            <stop style="stop-color:#FFFFFF" offset="1"></stop>
	</linearGradient>
        <circle r="5.49" cy="327.06" cx="512.73" class="st9"></circle>
        <linearGradient y2="327.0598" x2="536.8343" y1="327.0598" x1="525.8461" gradientUnits="userSpaceOnUse" id="SVGID_10_">
		<stop style="stop-color:#D0DDF8" offset="4.528621e-07"></stop>
            <stop style="stop-color:#FFFFFF" offset="1"></stop>
	</linearGradient>
        <circle r="5.49" cy="327.06" cx="531.34" class="st10"></circle>
</g>
    <linearGradient y2="525.7696" x2="540.726" y1="406.8074" x1="472.0432" gradientUnits="userSpaceOnUse" id="SVGID_11_">
	<stop style="stop-color:#FFFFFF" offset="0.0938"></stop>
        <stop style="stop-color:#BBCBE0" offset="0.9362"></stop>
</linearGradient>
    <circle r="68.67" cy="466.29" cx="506.38" class="st11"></circle>
    <g>
	<g>
		<g>
			<path d="M426.63,524.38c0.16-0.18,4.79-6.61,5.59-7.72c0.07-0.09,0.05-0.22-0.03-0.29
				c-0.26-0.21-0.79-0.64-1.04-0.84c-0.08-0.06-0.2-0.04-0.26,0.05l-5.5,7.63l-0.46,0.93L426.63,524.38z" class="st12"></path>
		</g>
	</g>
        <path d="M395.96,500.77c-1.73,0-3.14,1.52-3.14,3.4v10.46c0,1.88,1.4,3.4,3.14,3.4
		s3.14-1.52,3.14-3.4v-10.46C399.1,502.3,397.69,500.77,395.96,500.77z" class="st13" id="圆角矩形-5_18_"></path>
        <path d="M400.14,495.02c-5.6-0.38-6.46,3.35-6.31,6.22c-0.3-0.25-0.67-0.49-1.01-0.47
		c-1.16,0.07-1.05,1.57-1.05,1.57s-0.15,0.62,0.52,1.57c0.5,0.72,1.9,1.3,2.42,1.5l0.2,0.6c0,0,0.83,1.77,1.57,2.61
		c1.04,1.19,1.57,1.57,1.57,1.57s1,0.77,2.09,1.05c1,0.25,2.09,0,2.09,0s1.32-0.16,1.57-2.09c0.15-1.19,0.21-2.68,0.21-4.16l0-0.37
		c-0.02-2.81-0.21-5.41-0.21-5.41S403.47,495.24,400.14,495.02z" class="st14" id="Combined-shape-564_18_"></path>
        <path d="M398.05,499.73c0,0,3.42,0.65,5.23,0c1.85-0.66,2.09-2.61,2.09-2.61s0.05-1.46-0.52-2.61
		c-0.45-0.91-1.57-1.57-1.57-1.57s-0.95-0.7-2.09-0.52c-0.91,0.14-1.57,1.05-1.57,1.05s-1.19,1.18-2.09,1.57
		c-0.93,0.4-2.09,0-2.09,0s-1.82-0.42-3.14,1.05c-2,2.23-1.57,5.23-1.57,5.23s0.33,1.95,1.05,3.66c0.58,1.4,1.57,2.09,1.57,2.09
		s0.52,0.38,1.05,0c0.59-0.43,0-1.05,0-1.05l-0.52-1.05c0,0-2.06,0-2.09-3.14c-0.01-0.52,1.05-0.52,1.05-0.52s0.6-0.01,1.05,0.52
		c0.25,0.29,0.52,1.57,0.52,1.57s0.22-2.55,1.05-3.14C396.42,499.54,398.05,499.73,398.05,499.73z" class="st15" id="形状-17_18_"></path>
        <path d="M384.06,623.13l-3.11,4.84l13.19,8.49c0,0,1.06-1.38,0.38-3.49
		c-0.68-2.11-3.83-3.71-3.83-3.71s-1.06-0.61-1.48-1.57c-0.32-0.74-0.31-1.45-0.31-1.45L384.06,623.13z" class="st16" id="形状-30-拷贝_18_"></path>
        <path d="M407.99,562.48l2.61,25.63c0,0,0.11,0.78,0,1.57c-0.15,1.02-0.52,2.09-0.52,2.09
		l-18.83,36.08l-6.28-4.18c0,0,4.17-16.96,7.84-26.15c1.52-3.81,5.23-6.28,5.23-6.28s-4.85-9.27-7.32-17.78
		c-1.33-4.57-1.05-10.98-1.05-10.98H407.99z" class="st17" id="形状-34_14_"></path>
        <path d="M403.28,561.44c0,0-0.48,15.99-2.09,31.9c-2,19.76-5.23,40.27-5.23,40.27h-5.75
		c0,0-2.83-18.96-3.14-31.9c-0.19-8.13,1.57-12.55,1.57-12.55s-1.8-7.82-3.14-15.69c-0.95-5.59-1.05-12.03-1.05-12.03H403.28z" class="st18" id="形状-29-拷贝_14_"></path>
        <path d="M390.2,633.61v5.75h15.69c0,0,0.15-1.73-1.57-3.14c-1.71-1.4-5.23-1.05-5.23-1.05
		s-1.22,0.06-2.09-0.52c-0.67-0.45-1.05-1.05-1.05-1.05H390.2z" class="st19" id="形状-30_18_"></path>
        <path d="M422.99,524.95c0,0,1.48-2.21,2.27-2.92c0.65-0.59,0.65,0.97,0.65,0.97
		s0.44,0.03,0.97-0.65c0.23-0.29,0.71-1.41,0.84-1.69c0.22-0.45,0.45-0.58,0.45-0.58s1.84-1.03,2.4,2.34
		c0.31,1.87-2.85,6.68-2.85,6.68L422.99,524.95z" class="st20" id="形状-26-拷贝_18_"></path>
        <path d="M407.99,521.69l4.71,14.64l9.94-11.51l4.71,4.18l-13.6,17.26c0,0-0.81,0.52-1.57,0.52
		c-0.81,0-1.57-0.52-1.57-0.52l-6.8-5.75L407.99,521.69z" class="st21" id="形状-31_6_"></path>
        <path d="M399.1,514.37c0,0-0.09,1.23-0.52,2.09c-0.34,0.68-1.05,1.05-1.05,1.05
		s-1.83-1.16-3.14-2.61c-1-1.11-1.57-2.61-1.57-2.61l-6.8,3.66c0,0-2.07,0.96-3.14,2.61c-1.08,1.67-1.05,3.66-1.05,3.66v40.27h26.15
		v-40.79c0,0-0.36-2.62-2.61-4.71C402.91,514.71,399.1,514.37,399.1,514.37z" class="st21" id="形状-24_6_"></path>
        <polygon points="388.64,527.97 384.97,537.9 393.87,552.02 389.68,556.73 381.84,553.59
		381.84,548.36 381.84,527.97" class="st22" id="形状-33_6_"></polygon>
        <path d="M394.19,552.54c0,0,2.09,1.64,2.74,2.48c0.54,0.69-1.02,0.58-1.02,0.58
		s-0.06,0.44,0.58,1.02c0.27,0.25,1.36,0.81,1.62,0.96c0.44,0.25,0.55,0.5,0.55,0.5s0.9,1.92-2.5,2.22
		c-1.89,0.17-6.45-3.34-6.45-3.34L394.19,552.54z" class="st23" id="形状-26_20_"></path>
        <path d="M382.36,519.08l-9.41,18.83c0,0-0.48,0.98-0.52,1.57c-0.08,1.09,0.52,1.57,0.52,1.57
		l16.73,16.21l4.71-5.23l-12.55-13.6l6.8-10.98" class="st21" id="形状-32_6_"></path>
</g>
</svg>
