<svg t="1669381142329" class="icon" viewBox="0 0 1024 1024" version="1.1" xmlns="http://www.w3.org/2000/svg" p-id="4900" width="200" height="200"><path d="M492.22997333 72.18062187a218.45333333 218.45333333 0 0 1 135.9872 389.42947626 437.23434667 437.23434667 0 0 1 172.57813334 101.43516374c16.384 15.5830048 31.49368853 32.40391147 45.29265813 50.3170848a36.40888853 36.40888853 0 1 1-57.7080896 44.4188448 368.4579552 368.4579552 0 0 0-37.8288352-42.01585814 364.70784 364.70784 0 0 0-252.4956448-100.99825813c-202.21496853 0-366.1641952 163.91281813-366.1641952 366.12778667 0 10.52216853 0.43690667 20.93511147 1.31072 31.3116448a36.40888853 36.40888853 0 0 1-72.5629152 6.11669333c-1.05585813-12.37902187-1.56558187-24.86727147-1.56558293-37.42833813 0-194.05937813 125.9747552-358.70037333 300.55537813-416.69973334A218.45333333 218.45333333 0 0 1 492.22997333 72.18062187z m462.75697814 571.9836448c13.47128853 13.47128853 13.47128853 35.31662187 0 48.78791146l-243.93955627 243.9395552a34.51562667 34.51562667 0 0 1-45.76597333 2.65784854l-3.02193707-2.69425707-121.96977813-121.96977813a34.47921813 34.47921813 0 1 1 48.78791146-48.78791147l97.57582187 97.57582293 219.5456-219.5456c13.47128853-13.47128853 35.31662187-13.47128853 48.78791147 0zM492.22997333 143.10513813a147.52881813 147.52881813 0 1 0 0 295.0576352 147.52881813 147.52881813 0 0 0 0-295.0576352z" p-id="4901"></path></svg>
