<svg t="1652265439694" class="icon" viewBox="0 0 1024 1024" version="1.1" xmlns="http://www.w3.org/2000/svg" p-id="10363" width="64" height="64"><path d="M450.808242 217.212121h91.353213L744.727273 744.727273h-86.171152l-49.369212-135.943758h-226.148848L333.699879 744.727273H248.242424l202.565818-527.515152z m-43.442424 325.073455h177.493334l-86.884849-238.623031h-2.947879l-87.660606 238.623031z" p-id="10364"></path><path d="M512 1024C229.220848 1024 0 794.779152 0 512S229.220848 0 512 0 1024 229.220848 1024 512 794.779152 1024 512 1024z m0-74.938182c241.415758 0 437.061818-195.677091 437.061818-437.061818 0-241.415758-195.677091-437.061818-437.061818-437.061818C270.584242 74.938182 74.938182 270.584242 74.938182 512c0 241.415758 195.677091 437.061818 437.061818 437.061818z" p-id="10365"></path></svg>
