<?xml version="1.0" encoding="UTF-8"?>
<svg version="1.1" width="200px" height="165px" viewBox="0 0 625.0 168.0" xmlns="http://www.w3.org/2000/svg"
     xmlns:xlink="http://www.w3.org/1999/xlink">
    <defs>
        <clipPath id="i0">
            <path d="M13.1972656,0 L13.1972656,34.2109375 L50.9199219,34.2109375 L50.9199219,0 L64.1171875,0 L64.1171875,87.453125 L50.9199219,87.453125 L50.9199219,46.6152344 L13.1972656,46.6152344 L13.1972656,87.453125 L0,87.453125 L0,0 L13.1972656,0 Z"></path>
        </clipPath>
        <clipPath id="i1">
            <path d="M45.9355469,0 C58.3964844,0 69.0826823,4.45572917 77.9941406,13.3671875 C86.9433594,22.2786458 91.4179688,32.983724 91.4179688,45.4824219 C91.4179688,58.0566406 86.9244792,68.7239583 77.9375,77.484375 C68.9127604,86.2825521 58.0188802,90.6816406 45.2558594,90.6816406 C33.9654948,90.6816406 23.8268229,86.7734375 14.8398438,78.9570312 C4.94661458,70.3098958 0,58.9817708 0,44.9726562 C0,32.6627604 4.51236979,22.0898438 13.5371094,13.2539062 C22.5240885,4.41796875 33.3235677,0 45.9355469,0 Z M45.765625,12.4042969 C36.6653646,12.4042969 28.9811198,15.5761719 22.7128906,21.9199219 C16.4446615,28.188151 13.3105469,35.9290365 13.3105469,45.1425781 C13.3105469,54.8092448 16.5579427,62.7578125 23.0527344,68.9882812 C29.5097656,75.21875 36.9674479,78.3339844 45.4257812,78.3339844 C54.6015625,78.3339844 62.3424479,75.1621094 68.6484375,68.8183594 C74.9544271,62.3990885 78.1074219,54.5826823 78.1074219,45.3691406 C78.1074219,36.0423177 74.9921875,28.2259115 68.7617188,21.9199219 C62.5690104,15.5761719 54.9036458,12.4042969 45.765625,12.4042969 Z"></path>
        </clipPath>
        <clipPath id="i2">
            <path d="M13.1972656,0 L13.1972656,52.6757813 C13.1972656,60.1901042 14.4244792,65.6842448 16.8789062,69.1582031 C20.5416667,74.1803385 25.6959635,76.6914062 32.3417969,76.6914062 C39.0253906,76.6914062 44.1985677,74.1803385 47.8613281,69.1582031 C50.3157552,65.797526 51.5429688,60.3033854 51.5429688,52.6757813 L51.5429688,0 L64.7402344,0 L64.7402344,56.3007812 C64.7402344,65.5143229 61.8704427,73.1041667 56.1308594,79.0703125 C49.6738281,85.7161458 41.7441406,89.0390625 32.3417969,89.0390625 C22.9394531,89.0390625 15.0286458,85.7161458 8.609375,79.0703125 C2.86979167,73.1041667 0,65.5143229 0,56.3007812 L0,0 L13.1972656,0 Z"></path>
        </clipPath>
        <clipPath id="i3">
            <path d="M46.21875,0 C54.0729167,0 61.6627604,2.13346354 68.9882812,6.40039063 L68.9882812,22.0332031 C61.3606771,15.6516927 53.46875,12.4609375 45.3125,12.4609375 C36.3255208,12.4609375 28.7545573,15.6894531 22.5996094,22.1464844 C16.406901,28.5657552 13.3105469,36.4199219 13.3105469,45.7089844 C13.3105469,54.8847656 16.406901,62.625651 22.5996094,68.9316406 C28.7923177,75.2376302 36.3821615,78.390625 45.3691406,78.390625 C50.0136719,78.390625 53.9596354,77.6354167 57.2070312,76.125 C59.0195312,75.3697917 60.898112,74.3502604 62.8427734,73.0664062 C64.7874349,71.7825521 66.8359375,70.234375 68.9882812,68.421875 L68.9882812,84.3378906 C61.4361979,88.6048177 53.5065104,90.7382812 45.1992188,90.7382812 C32.7005208,90.7382812 22.0332031,86.3769531 13.1972656,77.6542969 C4.39908854,68.8561198 0,58.2454427 0,45.8222656 C0,34.6829427 3.68164062,24.7519531 11.0449219,16.0292969 C20.1074219,5.34309896 31.8320312,0 46.21875,0 Z"></path>
        </clipPath>
        <clipPath id="i4">
            <path d="M13.1972656,0 L13.1972656,75.0488281 L38.9121094,75.0488281 L38.9121094,87.453125 L0,87.453125 L0,0 L13.1972656,0 Z"></path>
        </clipPath>
        <clipPath id="i5">
            <path d="M13.1972656,0 L13.1972656,52.6757813 C13.1972656,60.1901042 14.4244792,65.6842448 16.8789062,69.1582031 C20.5416667,74.1803385 25.6959635,76.6914062 32.3417969,76.6914062 C39.0253906,76.6914062 44.1985677,74.1803385 47.8613281,69.1582031 C50.3157552,65.797526 51.5429688,60.3033854 51.5429688,52.6757813 L51.5429688,0 L64.7402344,0 L64.7402344,56.3007812 C64.7402344,65.5143229 61.8704427,73.1041667 56.1308594,79.0703125 C49.6738281,85.7161458 41.7441406,89.0390625 32.3417969,89.0390625 C22.9394531,89.0390625 15.0286458,85.7161458 8.609375,79.0703125 C2.86979167,73.1041667 0,65.5143229 0,56.3007812 L0,0 L13.1972656,0 Z"></path>
        </clipPath>
        <clipPath id="i6">
            <path d="M18.3515625,0 C27.1497396,0 34.0976562,0.868489583 39.1953125,2.60546875 C44.6705729,4.3046875 49.6360677,7.19335938 54.0917969,11.2714844 C63.1165365,19.5032552 67.6289062,30.3216146 67.6289062,43.7265625 C67.6289062,57.1692708 62.9277344,68.0442708 53.5253906,76.3515625 C48.8053385,80.5052083 43.858724,83.3938802 38.6855469,85.0175781 C33.8522135,86.641276 26.9986979,87.453125 18.125,87.453125 L0,87.453125 L0,0 L18.3515625,0 Z M19.1445312,12.4042969 L13.1972656,12.4042969 L13.1972656,75.0488281 L19.1445312,75.0488281 C25.0729167,75.0488281 30.000651,74.4257812 33.9277344,73.1796875 C37.8548177,71.8580729 41.4042969,69.7623698 44.5761719,66.8925781 C51.0709635,60.9641927 54.3183594,53.2421875 54.3183594,43.7265625 C54.3183594,34.1354167 51.108724,26.3567708 44.6894531,20.390625 C38.9121094,15.0664062 30.3971354,12.4042969 19.1445312,12.4042969 Z"></path>
        </clipPath>
    </defs>
    <g transform="translate(10.9091796875 40.84765625)">
        <g transform="translate(0.0 1.69921875)">
            <g clip-path="url(#i0)">
                <polygon points="0,0 64.1171875,0 64.1171875,87.453125 0,87.453125 0,0" stroke="none"
                         fill="#025cf0"></polygon>
            </g>
        </g>
        <g transform="translate(72.712890625 0.056640625)">
            <g clip-path="url(#i1)">
                <polygon points="0,0 91.4179688,0 91.4179688,90.6816406 0,90.6816406 0,0" stroke="none"
                         fill="#025cf0"></polygon>
            </g>
        </g>
        <g transform="translate(172.7265625 1.69921875)">
            <g clip-path="url(#i2)">
                <polygon points="0,0 64.7402344,0 64.7402344,89.0390625 0,89.0390625 0,0" stroke="none"
                         fill="#025cf0"></polygon>
            </g>
        </g>
        <g transform="translate(246.0625 0.0)">
            <g clip-path="url(#i3)">
                <polygon points="0,0 68.9882812,0 68.9882812,90.7382812 0,90.7382812 0,0" stroke="none"
                         fill="#025cf0"></polygon>
            </g>
        </g>
        <g transform="translate(323.703125 1.69921875)">
            <g clip-path="url(#i4)">
                <polygon points="0,0 38.9121094,0 38.9121094,87.453125 0,87.453125 0,0" stroke="none"
                         fill="#025cf0"></polygon>
            </g>
        </g>
        <g transform="translate(359.203125 0.056640625)">
            <g clip-path="url(#i1)">
                <polygon points="0,0 91.4179688,0 91.4179688,90.6816406 0,90.6816406 0,0" stroke="none"
                         fill="#025cf0"></polygon>
            </g>
        </g>
        <g transform="translate(459.216796875 1.69921875)">
            <g clip-path="url(#i5)">
                <polygon points="0,0 64.7402344,0 64.7402344,89.0390625 0,89.0390625 0,0" stroke="none"
                         fill="#025cf0"></polygon>
            </g>
        </g>
        <g transform="translate(536.9140625 1.69921875)">
            <g clip-path="url(#i6)">
                <polygon points="0,0 67.6289062,0 67.6289062,87.453125 0,87.453125 0,0" stroke="none"
                         fill="#025cf0"></polygon>
            </g>
        </g>
    </g>
</svg>
