<?xml version="1.0" encoding="UTF-8"?>
<svg width="250px" height="72px" viewBox="0 0 252 74" version="1.1" xmlns="http://www.w3.org/2000/svg" xmlns:xlink="http://www.w3.org/1999/xlink">
    <title>切片</title>
    <g id="页面-1" stroke="none" stroke-width="1" fill="none" fill-rule="evenodd">
        <g id="编组-2" transform="translate(15, 0)">
            <rect id="矩形" fill="#0052D9" x="0" y="6" width="63" height="63" rx="31.5"></rect>
            <g id="编组" transform="translate(8, 0)" fill="#FFFFFF" fill-rule="nonzero">
                <polygon id="路径" points="49 37 22.05 29.6 26.95 0 0 37 26.95 39.4666667 17.15 74"></polygon>
            </g>
        </g>
        <g id="HOUCLOUD" transform="translate(88.8445, 10.1)" fill="#FFFFFF" fill-rule="nonzero">
            <polygon id="路径" points="15.93 0 11.664 0 11.664 9.558 4.293 9.558 4.293 0 -1.42108547e-14 0 -1.42108547e-14 22.977 4.293 22.977 4.293 13.392 11.664 13.392 11.664 22.977 15.93 22.977"></polygon>
            <path d="M25.65,0 C21.978,0 18.981,2.997 18.981,6.696 L18.981,16.308 C18.981,19.98 21.978,22.977 25.65,22.977 L28.269,22.977 C31.968,22.977 34.938,19.98 34.938,16.308 L34.938,6.696 C34.938,2.997 31.968,0 28.269,0 L25.65,0 Z M30.807,16.065 C30.807,17.658 29.808,18.981 28.242,18.981 L25.677,18.981 C24.111,18.981 23.112,17.658 23.112,16.065 L23.112,6.912 C23.112,5.319 24.111,3.996 25.677,3.996 L28.242,3.996 C29.808,3.996 30.807,5.319 30.807,6.912 L30.807,16.065 Z" id="形状"></path>
            <path d="M54.135,0 L50.004,0 L50.004,16.065 C50.004,17.658 48.735,18.981 47.169,18.981 L45.171,18.981 C43.605,18.981 42.336,17.658 42.336,16.065 L42.336,0 L38.178,0 L38.178,16.308 C38.178,19.98 41.202,22.977 44.874,22.977 L47.493,22.977 C51.192,22.977 54.135,19.98 54.135,16.308 L54.135,0 Z" id="路径"></path>
            <path d="M66.555,18.981 L63.72,18.981 C62.154,18.981 61.155,17.658 61.155,16.065 L61.155,6.912 C61.155,5.319 62.154,3.996 63.72,3.996 L66.555,3.996 C67.878,3.996 68.445,4.914 68.688,6.102 L72.927,6.102 C72.603,2.673 70.092,0 66.582,0 L63.693,0 C60.021,0 57.024,2.997 57.024,6.696 L57.024,16.308 C57.024,19.98 60.021,22.977 63.693,22.977 L66.582,22.977 C70.065,22.977 72.603,20.331 72.927,16.956 L68.661,16.956 C68.391,18.117 67.851,18.981 66.555,18.981 Z" id="路径"></path>
            <polygon id="路径" points="79.326 0 75.276 0 75.276 22.977 91.773 22.977 91.773 19.089 79.326 19.089"></polygon>
            <path d="M100.818,0 C97.146,0 94.149,2.997 94.149,6.696 L94.149,16.308 C94.149,19.98 97.146,22.977 100.818,22.977 L103.437,22.977 C107.136,22.977 110.106,19.98 110.106,16.308 L110.106,6.696 C110.106,2.997 107.136,0 103.437,0 L100.818,0 Z M105.975,16.065 C105.975,17.658 104.976,18.981 103.41,18.981 L100.845,18.981 C99.279,18.981 98.28,17.658 98.28,16.065 L98.28,6.912 C98.28,5.319 99.279,3.996 100.845,3.996 L103.41,3.996 C104.976,3.996 105.975,5.319 105.975,6.912 L105.975,16.065 Z" id="形状"></path>
            <path d="M129.303,0 L125.172,0 L125.172,16.065 C125.172,17.658 123.903,18.981 122.337,18.981 L120.339,18.981 C118.773,18.981 117.504,17.658 117.504,16.065 L117.504,0 L113.346,0 L113.346,16.308 C113.346,19.98 116.37,22.977 120.042,22.977 L122.661,22.977 C126.36,22.977 129.303,19.98 129.303,16.308 L129.303,0 Z" id="路径"></path>
            <path d="M132.408,22.977 L142.884,22.977 C145.908,22.977 148.338,20.25 148.338,16.902 L148.338,6.075 C148.338,2.727 145.908,0 142.884,0 L132.408,0 L132.408,22.977 Z M136.62,18.738 L136.62,4.212 L141.858,4.212 C143.127,4.212 144.153,5.373 144.153,6.75 L144.153,16.2 C144.153,17.604 143.127,18.738 141.858,18.738 L136.62,18.738 Z" id="形状"></path>
        </g>
        <g id="快速开发-·-套件" transform="translate(88.345, 41.549)" fill="#FFFFFF" fill-rule="nonzero">
            <path d="M7.77,3.192 L7.77,5.229 L11.256,5.229 L11.256,6.825 C11.256,7.749 11.193,8.631 11.067,9.471 L6.93,9.471 L6.93,11.613 L10.626,11.613 C9.807,14.406 8.169,16.443 5.691,17.724 L7.035,19.53 C9.681,18.018 11.487,15.729 12.495,12.663 C13.797,15.393 15.729,17.682 18.291,19.551 L19.782,17.808 C17.22,16.212 15.309,14.133 14.07,11.613 L19.215,11.613 L19.215,9.471 L17.85,9.471 L17.85,3.192 L13.398,3.192 L13.398,0.231 L11.256,0.231 L11.256,3.192 L7.77,3.192 Z M13.398,5.229 L15.75,5.229 L15.75,9.471 L13.188,9.471 C13.314,8.484 13.398,7.434 13.398,6.342 L13.398,5.229 Z M0.735,4.347 C0.672,6.321 0.42,8.19 0,9.954 L1.764,10.458 C2.142,8.568 2.373,6.573 2.415,4.473 L0.735,4.347 Z M6.573,3.801 L5.082,4.284 L5.082,0.252 L2.919,0.252 L2.919,19.572 L5.082,19.572 L5.082,4.62 C5.586,5.985 5.985,7.413 6.3,8.883 L8.043,8.442 C7.623,6.699 7.119,5.145 6.573,3.801 Z" id="形状"></path>
            <path d="M27.783,1.722 L27.783,3.696 L32.886,3.696 L32.886,4.956 L28.434,4.956 L28.434,10.689 L31.647,10.689 C30.702,12.075 29.211,13.272 27.174,14.28 L28.539,16.044 C30.387,14.868 31.836,13.503 32.886,11.907 L32.886,16.779 L34.923,16.779 L34.923,10.689 L39.375,10.689 L39.375,4.956 L34.923,4.956 L34.923,3.696 L40.005,3.696 L40.005,1.722 L34.923,1.722 L34.923,0.273 L32.886,0.273 L32.886,1.722 L27.783,1.722 Z M37.38,8.799 L34.923,8.799 L34.923,6.825 L37.38,6.825 L37.38,8.799 Z M32.886,8.799 L30.45,8.799 L30.45,6.825 L32.886,6.825 L32.886,8.799 Z M36.708,11.025 L35.301,12.369 C36.75,13.566 37.863,14.679 38.64,15.708 L40.11,14.28 C39.165,13.188 38.031,12.117 36.708,11.025 Z M23.331,0.378 L21.84,1.785 C23.352,3.003 24.528,4.158 25.347,5.208 L26.88,3.696 C25.914,2.604 24.717,1.491 23.331,0.378 Z M35.301,19.299 L40.11,19.299 L40.656,17.136 C40.068,17.178 39.249,17.22 38.178,17.262 C37.086,17.262 36.036,17.283 34.986,17.283 C33.348,17.283 31.941,17.262 30.723,17.241 C29.484,17.199 28.56,17.031 27.93,16.716 C27.447,16.443 26.964,16.023 26.481,15.477 L26.25,15.246 L26.25,7.266 L21.441,7.266 L21.441,9.282 L24.213,9.282 L24.213,15.057 C23.373,15.498 22.449,16.569 21.42,18.249 L23.016,19.74 C24.066,17.85 24.78,16.926 25.2,16.926 C25.431,16.926 25.683,17.094 25.977,17.451 C26.607,18.165 27.342,18.648 28.182,18.9 C29.064,19.11 30.177,19.236 31.542,19.257 C32.886,19.278 34.146,19.299 35.301,19.299 Z" id="形状"></path>
            <path d="M43.617,1.26 L43.617,3.381 L47.25,3.381 L47.25,7.854 C47.25,7.98 47.229,8.085 47.229,8.211 L42.546,8.211 L42.546,10.332 L47.082,10.332 C46.914,11.76 46.641,12.999 46.263,14.049 C45.675,15.519 44.541,16.758 42.84,17.745 L44.037,19.614 C45.906,18.669 47.25,17.304 48.069,15.54 C48.678,14.133 49.098,12.39 49.308,10.332 L54.747,10.332 L54.747,19.341 L56.952,19.341 L56.952,10.332 L61.299,10.332 L61.299,8.211 L56.952,8.211 L56.952,3.381 L60.249,3.381 L60.249,1.26 L43.617,1.26 Z M49.476,3.381 L54.747,3.381 L54.747,8.211 L49.455,8.211 C49.455,8.085 49.476,7.98 49.476,7.854 L49.476,3.381 Z" id="形状"></path>
            <path d="M64.449,7.056 L69.552,7.056 C68.124,11.361 66.003,14.763 63.168,17.283 L64.323,19.32 C66.57,17.493 68.439,15.057 69.93,12.033 C70.602,13.188 71.568,14.28 72.849,15.33 C71.421,16.191 69.678,16.989 67.641,17.724 L68.796,19.782 C71.148,18.858 73.143,17.829 74.781,16.695 C76.482,17.766 78.582,18.753 81.081,19.677 L82.215,17.598 C80.052,16.884 78.183,16.107 76.608,15.246 C78.099,13.86 79.107,12.348 79.611,10.71 L79.611,8.862 L71.295,8.862 C71.484,8.274 71.673,7.686 71.883,7.056 L81.984,7.056 L81.984,4.977 L72.429,4.977 C72.786,3.549 73.08,2.037 73.332,0.42 L71.085,0.147 C70.854,1.827 70.539,3.444 70.161,4.977 L67.263,4.977 L68.313,1.176 L66.129,0.819 L64.449,7.056 Z M71.526,10.836 L77.385,10.836 C76.818,11.97 75.915,13.062 74.676,14.07 C73.269,13.062 72.219,11.991 71.526,10.836 Z M76.86,0.126 L75.369,1.554 C76.923,2.73 78.099,3.864 78.918,4.935 L80.472,3.36 C79.506,2.268 78.288,1.197 76.86,0.126 Z" id="形状"></path>
            <path d="M95.655,8.274 C95.193,8.274 94.815,8.421 94.521,8.757 C94.185,9.051 94.038,9.429 94.038,9.891 C94.038,10.332 94.185,10.71 94.521,11.025 C94.815,11.34 95.193,11.508 95.655,11.508 C96.096,11.508 96.474,11.34 96.789,11.025 C97.104,10.71 97.272,10.332 97.272,9.891 C97.272,9.429 97.104,9.051 96.789,8.757 C96.474,8.421 96.096,8.274 95.655,8.274 Z" id="路径"></path>
            <path d="M121.548,5.418 L115.815,5.418 C116.466,4.893 117.054,4.326 117.6,3.717 L119.784,3.717 C120.267,4.305 120.855,4.872 121.548,5.418 Z M122.283,3.717 L127.218,3.717 L127.218,1.743 L118.944,1.743 C119.175,1.323 119.385,0.903 119.553,0.462 L117.453,0.21 C117.243,0.714 116.949,1.239 116.613,1.743 L109.557,1.743 L109.557,3.717 L114.702,3.717 C113.232,4.851 111.258,5.796 108.78,6.531 L109.851,8.421 C110.922,8.085 111.93,7.686 112.854,7.224 L112.854,12.957 L109.263,12.957 L109.263,14.91 L114.324,14.91 C113.253,16.632 112.266,17.556 111.342,17.64 L111.888,19.404 C116.004,19.236 119.931,18.858 123.669,18.312 C123.921,18.732 124.152,19.194 124.404,19.698 L126.378,18.816 C125.622,17.43 124.74,16.128 123.69,14.91 L127.491,14.91 L127.491,12.957 L114.954,12.957 L114.954,12.18 L124.467,12.18 L124.467,10.458 L114.954,10.458 L114.954,9.702 L124.467,9.702 L124.467,7.98 L114.954,7.98 L114.954,7.224 L123.417,7.224 L123.417,6.678 C124.467,7.287 125.706,7.833 127.134,8.337 L128.121,6.3 C125.622,5.649 123.669,4.788 122.283,3.717 Z M122.577,16.569 C120.141,16.989 117.6,17.283 114.954,17.451 C115.563,16.779 116.193,15.939 116.865,14.91 L122.913,14.91 L121.674,15.33 C121.968,15.708 122.283,16.107 122.577,16.569 Z" id="形状"></path>
            <path d="M134.064,0 C133.077,3.234 131.544,6.048 129.486,8.421 L130.221,10.773 C130.809,10.143 131.376,9.492 131.922,8.82 L131.922,19.635 L134.085,19.635 L134.085,5.628 C134.925,4.158 135.597,2.625 136.122,0.987 L134.064,0 Z M137.613,1.596 C137.193,4.242 136.374,6.489 135.177,8.316 L136.584,10.143 C137.319,9.072 137.949,7.875 138.474,6.573 L141.477,6.573 L141.477,10.878 L135.618,10.878 L135.618,12.999 L141.477,12.999 L141.477,19.572 L143.682,19.572 L143.682,12.999 L149.037,12.999 L149.037,10.878 L143.682,10.878 L143.682,6.573 L148.239,6.573 L148.239,4.431 L143.682,4.431 L143.682,0.294 L141.477,0.294 L141.477,4.431 L139.188,4.431 C139.419,3.612 139.608,2.751 139.755,1.869 L137.613,1.596 Z" id="形状"></path>
        </g>
    </g>
</svg>
