<?xml version="1.0" encoding="UTF-8"?>
<svg version="1.1" width="80px" height="80px" viewBox="0 0 259.0 259.0" xmlns="http://www.w3.org/2000/svg"
     xmlns:xlink="http://www.w3.org/1999/xlink">
    <defs>
        <filter id="i0" x="-4.86891386%" y="-4.49438202%" filterUnits="userSpaceOnUse" width="106.741573%"
                height="106.741573%">
            <feGaussianBlur stdDeviation="2" in="SourceAlpha" result="i1"></feGaussianBlur>
            <feOffset dx="0" dy="1" in="i1" result="i2"></feOffset>
            <feColorMatrix values="0 0 0 1.0 0 0 0 0 1.0 0 0 0 0 1.0 0 0 0 0 0.5 0" type="matrix"
                           in="i2"></feColorMatrix>
        </filter>
        <clipPath id="i3">
            <path d="M183,0 C224.973641,-7.71043276e-15 259,34.026359 259,76 L259,183 C259,224.973641 224.973641,259 183,259 L76,259 C34.026359,259 5.14028851e-15,224.973641 0,183 L0,76 C-5.14028851e-15,34.026359 34.026359,7.71043276e-15 76,0 L183,0 Z"></path>
        </clipPath>
    </defs>
    <path d="M76,0 L183,0 C224.973641,-7.71043276e-15 259,34.026359 259,76 L259,183 C259,224.973641 224.973641,259 183,259 L76,259 C34.026359,259 5.14028851e-15,224.973641 0,183 L0,76 C-5.14028851e-15,34.026359 34.026359,7.71043276e-15 76,0 Z"
          stroke="none" fill="#000000" filter="url(#i0)"></path>
    <g clip-path="url(#i3)">
        <polygon points="0,0 259,0 259,259 0,259 0,0" stroke="none" fill="#02010D"></polygon>
        <path d="M76,0 L183,0 C224.973641,-7.71043276e-15 259,34.026359 259,76 L259,183 C259,224.973641 224.973641,259 183,259 L76,259 C34.026359,259 5.14028851e-15,224.973641 0,183 L0,76 C-5.14028851e-15,34.026359 34.026359,7.71043276e-15 76,0 Z"
              stroke="#FFFFFF" stroke-width="4" fill="none" stroke-miterlimit="5"></path>
    </g>
    <g transform="translate(25.0 73.0)">
        <text transform="translate(0.9380000000000024 91.0)" font-family="PingFangSC-Medium, PingFang SC"
              font-size="86.0" font-weight="400" fill="#FFFFFF" text-anchor="center" letter-spacing="8">HOU
        </text>
    </g>
</svg>
