<?xml version="1.0" encoding="UTF-8"?>
<svg width="300px" height="70px" viewBox="0 0 304 78.9677419" version="1.1" xmlns="http://www.w3.org/2000/svg" xmlns:xlink="http://www.w3.org/1999/xlink">
    <title>切片</title>
    <g id="页面-1" stroke="none" stroke-width="1" fill="none" fill-rule="evenodd">
        <g id="编组-3" transform="translate(2, 2.5195)">
            <g id="HOUCLOUD" transform="translate(92.9561, 4.1588)" fill="#0052D9" fill-rule="nonzero">
                <path d="M1.75358068,26.9260413 C1.75358068,27.1816519 1.67739645,27.3855455 1.52502798,27.5377221 C1.37265951,27.6898986 1.16886189,27.7659869 0.913635108,27.7659869 L0.839945571,27.7659869 C0.584334993,27.7659869 0.38044142,27.6898986 0.228264852,27.5377221 C0.076088284,27.3855455 0,27.1816519 0,26.9260413 L0,1.24523802 C0,0.989627442 0.076088284,0.785733868 0.228264852,0.6335573 C0.38044142,0.481380732 0.584334993,0.405292448 0.839945571,0.405292448 L0.913635108,0.405292448 C1.16886189,0.405292448 1.37265951,0.481380732 1.52502798,0.6335573 C1.67739645,0.785733868 1.75358068,0.989627442 1.75358068,1.24523802 L1.75358068,26.9260413 Z M19.4241012,26.9260413 C19.4241012,27.1816519 19.3480129,27.3855455 19.1958363,27.5377221 C19.0436597,27.6898986 18.8397662,27.7659869 18.5841556,27.7659869 L18.510466,27.7659869 C18.2552393,27.7659869 18.0514416,27.6898986 17.8990732,27.5377221 C17.7467047,27.3855455 17.6705205,27.1816519 17.6705205,26.9260413 L17.6705205,1.24523802 C17.6705205,0.989627442 17.7467047,0.785733868 17.8990732,0.6335573 C18.0514416,0.481380732 18.2552393,0.405292448 18.510466,0.405292448 L18.5841556,0.405292448 C18.8397662,0.405292448 19.0436597,0.481380732 19.1958363,0.6335573 C19.3480129,0.785733868 19.4241012,0.989627442 19.4241012,1.24523802 L19.4241012,26.9260413 Z M18.6135163,14.1996282 L0.921119201,14.1996282 L0.921119201,12.5347052 L18.6135163,12.5347052 L18.6135163,14.1996282 Z" id="形状"></path>
                <path d="M38.1556988,26.528233 C40.4155112,26.528233 42.4874537,25.9829496 44.3715263,24.8923829 C46.2555988,23.8018161 47.7453173,22.309603 48.8406815,20.4157435 C49.9360458,18.5218841 50.4837279,16.420485 50.4837279,14.1115462 C50.4837279,11.8221811 49.9360458,9.72442812 48.8406815,7.81828707 C47.7453173,5.91214602 46.2543515,4.40640398 44.3677842,3.30106094 C42.481217,2.1957179 40.4105218,1.64304637 38.1556988,1.64304637 C35.9008757,1.64304637 33.8301806,2.1957179 31.9436133,3.30106094 C30.057046,4.40640398 28.5660803,5.91214602 27.470716,7.81828707 C26.3753518,9.72442812 25.8276697,11.8221811 25.8276697,14.1115462 C25.8276697,16.420485 26.3753518,18.5218841 27.470716,20.4157435 C28.5660803,22.309603 30.0557987,23.8018161 31.9398713,24.8923829 C33.8239438,25.9829496 35.8958863,26.528233 38.1556988,26.528233 Z M38.1556988,28.1712794 C35.620702,28.1712794 33.2736711,27.5449183 31.114606,26.2921962 C28.955541,25.0394741 27.2386132,23.3348279 25.9638226,21.1782575 C24.689032,19.0216872 24.0516367,16.6661167 24.0516367,14.1115462 C24.0516367,11.5765494 24.689032,9.2282711 25.9638226,7.06671137 C27.2386132,4.90515165 28.9567884,3.18697649 31.1183481,1.91218589 C33.2799078,0.637395297 35.6256914,0 38.1556988,0 C40.6857062,0 43.0314897,0.637395297 45.1930495,1.91218589 C47.3546092,3.18697649 49.0727844,4.90515165 50.3475749,7.06671137 C51.6223655,9.2282711 52.2597608,11.5765494 52.2597608,14.1115462 C52.2597608,16.6661167 51.6223655,19.0216872 50.3475749,21.1782575 C49.0727844,23.3348279 47.3558565,25.0394741 45.1967915,26.2921962 C43.0377265,27.5449183 40.6906956,28.1712794 38.1556988,28.1712794 Z" id="形状"></path>
                <path d="M56.8874313,1.24466232 C56.8874313,0.989435542 56.9635196,0.785733868 57.1156962,0.6335573 C57.2678727,0.481380732 57.4717663,0.405292448 57.7273769,0.405292448 L57.8010664,0.405292448 C58.0562932,0.405292448 58.2600908,0.481380732 58.4124593,0.6335573 C58.5648278,0.785733868 58.641012,0.989435542 58.641012,1.24466232 L58.641012,17.7073652 C58.641012,19.2794087 58.9910373,20.7409178 59.6910879,22.0918926 C60.3911385,23.4428675 61.3539959,24.5162592 62.5796601,25.3120678 C63.8053244,26.1078764 65.1648387,26.5057807 66.6582032,26.5057807 C68.1519516,26.5057807 69.5129052,26.1091238 70.7410641,25.3158098 C71.969223,24.5224959 72.9333278,23.4491042 73.6333784,22.0956347 C74.333429,20.7421652 74.6834543,19.2794087 74.6834543,17.7073652 L74.6834543,1.24466232 C74.6834543,0.989435542 74.7595426,0.785733868 74.9117191,0.6335573 C75.0638957,0.481380732 75.2677893,0.405292448 75.5233999,0.405292448 L75.5970894,0.405292448 C75.8523162,0.405292448 76.0561138,0.481380732 76.2084823,0.6335573 C76.3608507,0.785733868 76.437035,0.989435542 76.437035,1.24466232 L76.437035,17.7073652 C76.437035,19.5200511 75.9985438,21.2320854 75.1215616,22.8434683 C74.2445794,24.4548512 73.0569113,25.7456655 71.5585574,26.715911 C70.0602035,27.6861566 68.4267521,28.1712794 66.6582032,28.1712794 C64.8896544,28.1712794 63.256203,27.6861566 61.7578491,26.715911 C60.2594952,25.7456655 59.0731704,24.4548512 58.1988748,22.8434683 C57.3245791,21.2320854 56.8874313,19.5200511 56.8874313,17.7073652 L56.8874313,1.24466232 Z" id="路径"></path>
                <path d="M94.6967794,28.1712794 C92.1621664,28.1712794 89.8496774,27.5387775 87.7593125,26.2737738 C85.6689477,25.0087701 84.0281081,23.2918423 82.836794,21.1229904 C81.6454798,18.9541385 81.0498227,16.5826403 81.0498227,14.0084959 C81.0498227,11.4980623 81.6454798,9.16820645 82.836794,7.01892831 C84.0281081,4.86965018 85.6639583,3.16250926 87.7443444,1.89750555 C89.8247305,0.632501851 92.1324219,0 94.6674187,0 C96.7552889,0 98.6982747,0.447030662 100.496376,1.34109199 C102.294478,2.23515331 103.810102,3.4584188 105.043251,5.01088845 C105.219799,5.20240449 105.298286,5.39516787 105.278712,5.5891786 C105.259138,5.78318933 105.136322,5.96136833 104.910264,6.12371559 L104.79973,6.19740512 C104.603224,6.34938979 104.411613,6.41070179 104.224894,6.38134112 C104.038175,6.35198044 103.856542,6.24384488 103.679994,6.05693445 C102.599215,4.65222766 101.289978,3.56540296 99.7522845,2.79646032 C98.2145912,2.02751769 96.5196359,1.64304637 94.6674187,1.64304637 C92.4321694,1.64304637 90.4094493,2.19447055 88.5992581,3.29731889 C86.789067,4.40016723 85.3668973,5.89487504 84.3327491,7.7814423 C83.2986009,9.66800956 82.7815268,11.7436941 82.7815268,14.0084959 C82.7815268,16.3370085 83.2973536,18.4592288 84.3290071,20.3751567 C85.3606606,22.2910847 86.7828302,23.7955794 88.5955161,24.8886408 C90.4082019,25.9817023 92.4419563,26.528233 94.6967794,26.528233 L94.6967794,28.1712794 Z M103.686903,22.2248792 C103.863834,22.0233844 104.044412,21.9116027 104.228636,21.8895343 C104.41286,21.8674658 104.603224,21.9301211 104.79973,22.0775002 L104.910264,22.1511897 C105.141312,22.3081638 105.26787,22.4861508 105.289938,22.685151 C105.312007,22.8841511 105.224788,23.0769145 105.028283,23.2634411 C103.819697,24.761795 102.311461,25.9543565 100.503572,26.8411257 C98.6956841,27.7278948 96.7502995,28.1712794 94.6674187,28.1712794 C92.1324219,28.1712794 89.8247305,27.5387775 87.7443444,26.2737738 C85.6639583,25.0087701 84.0281081,23.2918423 82.836794,21.1229904 C81.6454798,18.9541385 81.0498227,16.5826403 81.0498227,14.0084959 C81.0498227,11.4980623 81.6454798,9.16820645 82.836794,7.01892831 C84.0281081,4.86965018 85.6689477,3.16250926 87.7593125,1.89750555 C89.8496774,0.632501851 92.1621664,0 94.6967794,0 L94.6967794,1.64304637 C92.4615301,1.64304637 90.4339165,2.1895771 88.6139385,3.28263855 C86.7939604,4.3757 85.3668973,5.87040781 84.3327491,7.76676196 C83.2986009,9.66311612 82.7815268,11.7436941 82.7815268,14.0084959 C82.7815268,16.3370085 83.2924601,18.4543353 84.3143267,20.3604764 C85.3361934,22.2666174 86.7534696,23.7711121 88.5661554,24.8739605 C90.3788412,25.9768088 92.4125957,26.528233 94.6674187,26.528233 C96.4950727,26.528233 98.1813925,26.1487511 99.7263781,25.3897872 C101.271364,24.6308234 102.591539,23.5758541 103.686903,22.2248792 Z" id="形状"></path>
                <path d="M111.063021,27.7659869 C110.611289,27.7659869 110.268748,27.6493118 110.035398,27.4159616 C109.802047,27.1826114 109.685372,26.8400702 109.685372,26.388338 L109.685372,1.24523802 C109.685372,0.989627442 109.761461,0.785733868 109.913637,0.6335573 C110.065814,0.481380732 110.269707,0.405292448 110.525318,0.405292448 L110.599007,0.405292448 C110.854234,0.405292448 111.058032,0.481380732 111.2104,0.6335573 C111.362769,0.785733868 111.438953,0.989627442 111.438953,1.24523802 L111.438953,27.7659869 L111.063021,27.7659869 Z M124.534965,26.1004883 C124.787505,26.1004883 124.983051,26.169956 125.121603,26.3088915 C125.260155,26.447827 125.32943,26.6437567 125.32943,26.8966807 L125.32943,26.9703702 C125.32943,27.2232942 125.260155,27.419128 125.121603,27.5578715 C124.983051,27.6966151 124.787505,27.7659869 124.534965,27.7659869 L111.217884,27.7659869 L111.217884,26.1004883 L124.534965,26.1004883 Z" id="形状"></path>
                <path d="M141.356581,26.528233 C143.616393,26.528233 145.688336,25.9829496 147.572408,24.8923829 C149.456481,23.8018161 150.946199,22.309603 152.041563,20.4157435 C153.136928,18.5218841 153.68461,16.420485 153.68461,14.1115462 C153.68461,11.8221811 153.136928,9.72442812 152.041563,7.81828707 C150.946199,5.91214602 149.455233,4.40640398 147.568666,3.30106094 C145.682099,2.1957179 143.611404,1.64304637 141.356581,1.64304637 C139.101758,1.64304637 137.031063,2.1957179 135.144495,3.30106094 C133.257928,4.40640398 131.766962,5.91214602 130.671598,7.81828707 C129.576234,9.72442812 129.028552,11.8221811 129.028552,14.1115462 C129.028552,16.420485 129.576234,18.5218841 130.671598,20.4157435 C131.766962,22.309603 133.256681,23.8018161 135.140753,24.8923829 C137.024826,25.9829496 139.096768,26.528233 141.356581,26.528233 Z M141.356581,28.1712794 C138.821584,28.1712794 136.474553,27.5449183 134.315488,26.2921962 C132.156423,25.0394741 130.439495,23.3348279 129.164705,21.1782575 C127.889914,19.0216872 127.252519,16.6661167 127.252519,14.1115462 C127.252519,11.5765494 127.889914,9.2282711 129.164705,7.06671137 C130.439495,4.90515165 132.15767,3.18697649 134.31923,1.91218589 C136.48079,0.637395297 138.826573,0 141.356581,0 C143.886588,0 146.232372,0.637395297 148.393931,1.91218589 C150.555491,3.18697649 152.273666,4.90515165 153.548457,7.06671137 C154.823248,9.2282711 155.460643,11.5765494 155.460643,14.1115462 C155.460643,16.6661167 154.823248,19.0216872 153.548457,21.1782575 C152.273666,23.3348279 150.556739,25.0394741 148.397673,26.2921962 C146.238608,27.5449183 143.891578,28.1712794 141.356581,28.1712794 Z" id="形状"></path>
                <path d="M160.088313,1.24466232 C160.088313,0.989435542 160.164402,0.785733868 160.316578,0.6335573 C160.468755,0.481380732 160.672648,0.405292448 160.928259,0.405292448 L161.001948,0.405292448 C161.257175,0.405292448 161.460973,0.481380732 161.613341,0.6335573 C161.76571,0.785733868 161.841894,0.989435542 161.841894,1.24466232 L161.841894,17.7073652 C161.841894,19.2794087 162.191919,20.7409178 162.89197,22.0918926 C163.59202,23.4428675 164.554878,24.5162592 165.780542,25.3120678 C167.006206,26.1078764 168.365721,26.5057807 169.859085,26.5057807 C171.352834,26.5057807 172.713787,26.1091238 173.941946,25.3158098 C175.170105,24.5224959 176.13421,23.4491042 176.83426,22.0956347 C177.534311,20.7421652 177.884336,19.2794087 177.884336,17.7073652 L177.884336,1.24466232 C177.884336,0.989435542 177.960425,0.785733868 178.112601,0.6335573 C178.264778,0.481380732 178.468671,0.405292448 178.724282,0.405292448 L178.797971,0.405292448 C179.053198,0.405292448 179.256996,0.481380732 179.409364,0.6335573 C179.561733,0.785733868 179.637917,0.989435542 179.637917,1.24466232 L179.637917,17.7073652 C179.637917,19.5200511 179.199426,21.2320854 178.322444,22.8434683 C177.445461,24.4548512 176.257793,25.7456655 174.759439,26.715911 C173.261085,27.6861566 171.627634,28.1712794 169.859085,28.1712794 C168.090536,28.1712794 166.457085,27.6861566 164.958731,26.715911 C163.460377,25.7456655 162.274052,24.4548512 161.399757,22.8434683 C160.525461,21.2320854 160.088313,19.5200511 160.088313,17.7073652 L160.088313,1.24466232 Z" id="路径"></path>
                <path d="M187.072784,27.7659869 C186.621051,27.7659869 186.27851,27.6493118 186.04516,27.4159616 C185.81181,27.1826114 185.695135,26.8400702 185.695135,26.388338 L185.695135,1.78294135 C185.695135,1.33120915 185.81181,0.988667942 186.04516,0.755317745 C186.27851,0.521967547 186.621051,0.405292448 187.072784,0.405292448 L187.448715,0.405292448 L187.448715,27.7659869 L187.072784,27.7659869 Z M187.20577,26.1004883 L193.985208,26.1004883 C196.146767,26.1004883 198.044273,25.5600983 199.677724,24.4793185 C201.311176,23.3985386 202.566296,21.9444176 203.443087,20.1169555 C204.319877,18.2894934 204.758272,16.2846199 204.758272,14.102335 C204.758272,11.8732265 204.321029,9.84494121 203.446541,8.0174791 C202.572053,6.19001698 201.318084,4.74203679 199.684633,3.67353851 C198.051181,2.60504024 196.151373,2.0707911 193.985208,2.0707911 L187.20577,2.0707911 L187.20577,0.405292448 L193.985208,0.405292448 C196.466089,0.405292448 198.653363,1.03165351 200.54703,2.28437562 C202.440698,3.53709773 203.908348,5.21276708 204.94998,7.31138366 C205.991613,9.41000024 206.512429,11.6742264 206.512429,14.1040621 C206.512429,16.4847714 205.991613,18.7244344 204.94998,20.8230509 C203.908348,22.9216675 202.435709,24.6034777 200.532062,25.8684814 C198.628416,27.1334851 196.446131,27.7659869 193.985208,27.7659869 L187.20577,27.7659869 L187.20577,26.1004883 Z" id="形状"></path>
            </g>
            <g id="快速开发基础套件" transform="translate(90.7408, 42.4555)" fill="#0052D9" fill-rule="nonzero">
                <path d="M2.91431862,4.71708463 C2.95666261,4.71708463 2.9778346,4.73825662 2.9778346,4.78060061 L2.9778346,7.99021984 C2.9778346,11.4464791 2.72789509,14.5454265 2.22801608,17.2870622 C2.21041858,17.3434292 2.18058531,17.3698254 2.13851629,17.3662509 L0.0581616959,16.9649454 C0.0160926697,16.9616459 -0.00315459723,16.9388241 0.000419895194,16.8964802 C0.486000943,14.2532805 0.728791466,11.284527 0.728791466,7.99021984 L0.728791466,4.78060061 C0.728791466,4.73825662 0.74996346,4.71708463 0.792307447,4.71708463 L2.91431862,4.71708463 Z M6.81560214,0.536165816 C6.85794613,0.536165816 6.87911812,0.557200329 6.87911812,0.599269355 L6.87911812,24.7254434 C6.87911812,24.7677874 6.85794613,24.7889594 6.81560214,24.7889594 L4.33435448,24.7889594 C4.29228545,24.7889594 4.27125094,24.7677874 4.27125094,24.7254434 L4.27125094,0.599269355 C4.27125094,0.557200329 4.29228545,0.536165816 4.33435448,0.536165816 L6.81560214,0.536165816 Z M16.8779358,0.55183859 C16.9202798,0.55183859 16.9414518,0.573010584 16.9414518,0.615354571 L16.9414518,9.95426595 C16.9414518,13.1746087 16.2753589,16.0896072 14.943173,18.6992617 C13.6109872,21.3089161 11.5810879,23.4619978 8.85347526,25.1585069 C8.82185475,25.1796789 8.79023424,25.1708802 8.75861373,25.1321107 L7.43880115,23.0204106 C7.41762915,22.9923645 7.42821515,22.9623938 7.47055914,22.9304983 C9.82862429,21.4558827 11.5584037,19.6363286 12.6598972,17.471836 C13.7613908,15.3073433 14.3121376,12.8014866 14.3121376,9.95426595 L14.3121376,0.615354571 C14.3121376,0.573010584 14.3333096,0.55183859 14.3756536,0.55183859 L16.8779358,0.55183859 Z M24.6330721,12.6730799 C24.675416,12.6730799 24.696588,12.6942519 24.696588,12.7365959 L24.696588,15.175362 C24.696588,15.217706 24.675416,15.238878 24.6330721,15.238878 L8.5313585,15.238878 C8.48928948,15.238878 8.46825496,15.217706 8.46825496,15.175362 L8.46825496,12.7365959 C8.46825496,12.6942519 8.48928948,12.6730799 8.5313585,12.6730799 L24.6330721,12.6730799 Z M22.9808317,3.77754304 C23.0020037,3.77754304 23.0178827,3.78283604 23.0284687,3.79342204 C23.0390547,3.80400803 23.0443477,3.81988703 23.0443477,3.84105902 L23.0443477,13.9029802 C23.0443477,13.9453242 23.0231757,13.9664962 22.9808317,13.9664962 L20.4785495,13.9664962 C20.4362055,13.9664962 20.4150335,13.9453242 20.4150335,13.9029802 L20.4150335,6.3433412 L9.39212377,6.3433412 C9.34977979,6.3433412 9.32860779,6.3221692 9.32860779,6.27982522 L9.32860779,3.84105902 C9.32860779,3.79871503 9.34977979,3.77754304 9.39212377,3.77754304 L22.9808317,3.77754304 Z M18.3194186,13.6707757 C18.3614876,13.6672012 18.3843094,13.686586 18.3878839,13.7289299 C18.7997754,15.6894016 19.5300717,17.428942 20.5787728,18.9475514 C21.6274739,20.4661608 23.0580957,21.7938097 24.8706383,22.9304983 C24.9129823,22.9623938 24.9235683,22.9923645 24.9023963,23.0204106 L23.5825837,25.1321107 C23.5509632,25.1708802 23.5193427,25.1796789 23.4877222,25.1585069 C21.3900451,23.8422688 19.6988977,22.254988 18.4142801,20.3966644 C17.1296625,18.5383408 16.2655977,16.4881631 15.8220857,14.2461315 C15.8044882,14.1900395 15.8168615,14.1602062 15.8592054,14.1566317 L18.3194186,13.6707757 Z M7.86650291,6.27982522 C7.89812342,6.25865322 7.92273243,6.26222771 7.94032993,6.29054869 L10.3526999,9.35787563 C10.3738719,9.38949614 10.3704349,9.41410515 10.3423888,9.43170265 L8.48393484,11.0785813 C8.45230723,11.0997533 8.42769822,11.0963163 8.41010072,11.0682703 L5.99731834,8.00094332 C5.9764213,7.96932281 5.9799958,7.9447138 6.00804181,7.9271163 L7.86650291,6.27982522 Z" id="形状"></path>
                <path d="M34.0301377,6.77104296 C34.0301377,6.72869898 34.0513097,6.70752698 34.0936537,6.70752698 L49.7994234,6.70752698 C49.8417674,6.70752698 49.8629394,6.72869898 49.8629394,6.77104296 L49.8629394,13.9137037 C49.8629394,13.9560477 49.8417674,13.9772197 49.7994234,13.9772197 L34.0936537,13.9772197 C34.0513097,13.9772197 34.0301377,13.9560477 34.0301377,13.9137037 L34.0301377,6.77104296 Z M47.3602448,8.87201962 L36.5328323,8.87201962 L36.5328323,11.812727 L47.3602448,11.812727 L47.3602448,8.87201962 Z M31.2374967,20.9087104 C31.2622432,20.9298824 31.2622432,20.9527042 31.2374967,20.9771757 L27.8641382,24.6940979 C27.8393918,24.7185694 27.8147828,24.7202192 27.7903112,24.6990472 L25.9846426,23.031134 C25.9601711,23.009962 25.9601711,22.9870028 25.9846426,22.9622563 L29.3580011,19.2457466 C29.3827476,19.2210001 29.4074941,19.2192128 29.4322406,19.2403848 L31.2374967,20.9087104 Z M38.4911042,15.2281546 C38.5370227,15.2597751 38.5493959,15.2915331 38.5282239,15.3234285 C38.1658254,16.3088886 37.71977,17.2767512 37.1900577,18.2270162 C36.6603454,19.1772813 36.062924,20.0923513 35.3977935,20.9722264 C35.3625985,21.0142954 35.3308405,21.0247439 35.3025195,21.0035719 L33.3702314,19.5468288 C33.3317368,19.5116338 33.3247253,19.4816631 33.3491969,19.4569166 C34.5001834,17.9295085 35.4382127,16.2525216 36.1632848,14.425956 C36.1949053,14.3871865 36.2247385,14.3766005 36.2527846,14.394198 L38.4911042,15.2281546 Z M31.443305,8.76643462 C31.464477,8.76643462 31.480356,8.77172762 31.490942,8.78231361 C31.501528,8.79289961 31.506821,8.8087786 31.506821,8.8299506 L31.506821,18.5751168 C31.506821,19.2721428 31.6168054,19.86434 31.8367741,20.3517083 C32.0567429,20.8390766 32.3831903,21.2103426 32.8161163,21.4655063 C33.2490423,21.7206701 33.7716744,21.848252 34.3840124,21.848252 L50.9344623,21.848252 C50.9768062,21.848252 50.9979782,21.869424 50.9979782,21.911768 L50.9979782,24.3509466 C50.9979782,24.3930156 50.9768062,24.4140502 50.9344623,24.4140502 L34.3840124,24.4140502 C33.3562084,24.4140502 32.4279402,24.1562743 31.5992079,23.6407225 C30.7704755,23.1251707 30.1202616,22.4195521 29.6485661,21.5238668 C29.1768706,20.6281815 28.9410228,19.6452648 28.9410228,18.5751168 L28.9410228,11.3322328 L26.6342379,11.3322328 C26.5918939,11.3322328 26.5707219,11.3110608 26.5707219,11.2687168 L26.5707219,8.8299506 C26.5707219,8.78760661 26.5918939,8.76643462 26.6342379,8.76643462 L31.443305,8.76643462 Z M29.7593066,0.435942547 C29.7876276,0.418345046 29.8175984,0.428793563 29.8492189,0.467288096 L31.97123,5.77829643 C31.992402,5.80661741 31.9801663,5.8383754 31.9345228,5.8735704 L29.6962031,6.74959601 C29.6678821,6.76719351 29.6379114,6.75674499 29.6062909,6.71825046 L27.4838672,1.40724212 C27.4662697,1.37562161 27.478643,1.34386362 27.520987,1.31196815 L29.7593066,0.435942547 Z M47.6666888,14.394198 C47.6947348,14.3766005 47.7245681,14.3871865 47.7561886,14.425956 C48.4532146,16.2242006 49.3912439,17.9011875 50.5702765,19.4569166 C50.594748,19.4816631 50.5877365,19.5116338 50.549242,19.5468288 L48.6169538,21.0035719 C48.5922074,21.0247439 48.5604494,21.0142954 48.5216799,20.9722264 C47.1809703,19.1948788 46.1374934,17.3119462 45.3912494,15.3234285 C45.3736519,15.2915331 45.3860251,15.2597751 45.4283691,15.2281546 L47.6666888,14.394198 Z M43.1686025,0.572873103 C43.2109465,0.572873103 43.2321185,0.594045097 43.2321185,0.636389084 L43.2321185,21.0299682 C43.2321185,21.0723122 43.2109465,21.0934842 43.1686025,21.0934842 L40.7508708,21.0934842 C40.7085268,21.0934842 40.6873549,21.0723122 40.6873549,21.0299682 L40.6873549,0.636389084 C40.6873549,0.594045097 40.7085268,0.572873103 40.7508708,0.572873103 L43.1686025,0.572873103 Z M50.4275717,2.37317996 C50.4699157,2.37317996 50.4910877,2.39435195 50.4910877,2.43669594 L50.4910877,4.64325761 C50.4910877,4.6856016 50.4699157,4.70677359 50.4275717,4.70677359 L33.4655054,4.70677359 C33.4231614,4.70677359 33.4019894,4.6856016 33.4019894,4.64325761 L33.4019894,2.43669594 C33.4019894,2.39435195 33.4231614,2.37317996 33.4655054,2.37317996 L50.4275717,2.37317996 Z" id="形状"></path>
                <path d="M77.1352168,11.1738553 C77.1775607,11.1738553 77.1987327,11.1948898 77.1987327,11.2369588 L77.1987327,13.7396534 C77.1987327,13.7817224 77.1775607,13.802757 77.1352168,13.802757 L53.1888671,13.802757 C53.1465231,13.802757 53.1253512,13.7817224 53.1253512,13.7396534 L53.1253512,11.2369588 C53.1253512,11.1948898 53.1465231,11.1738553 53.1888671,11.1738553 L77.1352168,11.1738553 Z M75.7890079,1.37012239 C75.8313519,1.37012239 75.8525239,1.39129439 75.8525239,1.43363837 L75.8525239,3.93592055 C75.8525239,3.97826454 75.8313519,3.99943653 75.7890079,3.99943653 L54.535076,3.99943653 C54.492732,3.99943653 54.47156,3.97826454 54.47156,3.93592055 L54.47156,1.43363837 C54.47156,1.39129439 54.492732,1.37012239 54.535076,1.37012239 L75.7890079,1.37012239 Z M72.0832216,2.68457324 C72.1252907,2.68457324 72.1463252,2.70574524 72.1463252,2.74808922 L72.1463252,24.3773429 C72.1463252,24.4194119 72.1252907,24.4404464 72.0832216,24.4404464 L69.538458,24.4404464 C69.496389,24.4404464 69.4753545,24.4194119 69.4753545,24.3773429 L69.4753545,2.74808922 C69.4753545,2.70574524 69.496389,2.68457324 69.538458,2.68457324 L72.0832216,2.68457324 Z M61.3663434,2.68457324 C61.4084125,2.68457324 61.429447,2.70574524 61.429447,2.74808922 L61.429447,11.9183121 C61.429447,14.4347547 60.9402914,16.7875269 59.9619804,18.9766285 C58.9836693,21.1657302 57.4790829,23.1207713 55.4482213,24.8417519 C55.4306238,24.8593494 55.4156384,24.8681482 55.4032652,24.8681482 C55.3908919,24.8681482 55.3759066,24.8593494 55.3583091,24.8417519 L53.6903959,22.9094638 C53.6692239,22.8849923 53.6780227,22.8533718 53.7167922,22.8146023 C55.4622443,21.3188147 56.738888,19.6760605 57.5467233,17.8863396 C58.3545586,16.0966187 58.7584763,14.1072762 58.7584763,11.9183121 L58.7584763,2.74808922 C58.7584763,2.70574524 58.7795108,2.68457324 58.8215798,2.68457324 L61.3663434,2.68457324 Z" id="形状"></path>
                <path d="M83.3436976,1.82422041 C83.3860416,1.82422041 83.4072136,1.84539241 83.4072136,1.88773639 L83.4072136,5.1975789 L103.320298,5.1975789 C103.362642,5.1975789 103.383814,5.21875089 103.383814,5.26109488 L103.383814,7.67882656 C103.383814,7.72117055 103.362642,7.74234254 103.320298,7.74234254 L80.925966,7.74234254 C80.883622,7.74234254 80.86245,7.72117055 80.86245,7.67882656 L80.86245,1.88773639 C80.86245,1.84539241 80.883622,1.82422041 80.925966,1.82422041 L83.3436976,1.82422041 Z M90.3230316,0.609992832 C90.3651006,0.609992832 90.3861351,0.631164826 90.3861351,0.673508813 C90.1749651,5.26645661 89.3267793,9.53027615 87.8415777,13.4649674 C86.3563761,17.3996587 84.0599709,21.0739619 80.9523622,24.4878772 C80.9276157,24.5266467 80.9030067,24.5337957 80.8785352,24.5093241 L78.9565581,22.7985171 C78.9320866,22.7740455 78.9320866,22.742425 78.9565581,22.7036555 C81.8708693,19.4973358 84.0072472,16.093113 85.3656918,12.490987 C86.7241364,8.88886098 87.5072939,4.91271935 87.7151644,0.562562067 C87.7151644,0.502620579 87.7361989,0.472649835 87.7782679,0.472649835 L90.3230316,0.609992832 Z M102.206707,10.5931377 C102.227604,10.5931377 102.243345,10.5984307 102.253931,10.6090167 C102.264517,10.6196027 102.268023,10.6353442 102.264448,10.6562413 C101.90205,12.7998369 101.058332,14.8359228 99.7332953,16.7644989 C98.4082585,18.693075 96.5975031,20.3762485 94.3010292,21.8140194 C92.0045553,23.2517902 89.281342,24.3050281 86.1313893,24.9737332 C86.0750223,25.0053537 86.0450516,24.9929804 86.0414771,24.9366135 L85.513552,22.4768127 C85.5099775,22.4344688 85.5293623,22.4115095 85.5717063,22.407935 C87.8838529,21.9187795 89.9162956,21.2219597 91.6690342,20.3174756 C93.4217728,19.4129916 94.8815405,18.3597536 96.0483373,17.1577618 C97.2151342,15.95577 98.1152876,14.6438625 98.7487976,13.2220394 L87.0816544,13.2220394 C87.0393104,13.2220394 87.0181384,13.2010049 87.0181384,13.1589359 L87.0181384,10.6562413 C87.0181384,10.6141722 87.0393104,10.5931377 87.0816544,10.5931377 L102.206707,10.5931377 Z M90.0801036,14.0246505 C90.1081496,14.0034785 90.1381203,14.0140645 90.1700158,14.0564084 C90.9759264,15.3162795 92.0361071,16.5040421 93.3505579,17.6196962 C94.6650088,18.7353503 96.1475982,19.7067186 97.7983263,20.5338012 C99.4490544,21.3608837 101.157731,21.985595 102.924355,22.407935 C102.945527,22.4255325 102.9579,22.4396243 102.961474,22.4502103 C102.965049,22.4607963 102.97206,22.4766753 102.982509,22.4978473 L102.412515,24.9155789 C102.40894,24.9579229 102.385981,24.9773077 102.343637,24.9737332 C100.379866,24.5021751 98.4688186,23.7929821 96.610495,22.846154 C94.7521714,21.899326 93.0733973,20.7906834 91.5741727,19.5202263 C90.0749481,18.2497692 88.8642262,16.9036291 87.9420072,15.481806 C87.9208352,15.4499106 87.9296339,15.4181526 87.9684034,15.3865321 L90.0801036,14.0246505 Z M99.978698,3.18115273 C100.017467,3.21964726 100.026266,3.25126777 100.005094,3.27601426 L98.4213191,5.20830237 C98.3861241,5.24707187 98.3561534,5.25408337 98.3314069,5.22933689 L94.9951681,2.5158847 C94.9563986,2.4771152 94.9475999,2.44535721 94.9687719,2.42061072 L96.552547,0.488735051 C96.587742,0.449965556 96.6175753,0.442816571 96.6420468,0.467288096 L99.978698,3.18115273 Z" id="形状"></path>
                <path d="M129.75367,21.7216325 C129.796014,21.7216325 129.817186,21.7428045 129.817186,21.7851485 L129.817186,24.1183296 C129.817186,24.1606736 129.796014,24.1818456 129.75367,24.1818456 L106.155421,24.1818456 C106.113077,24.1818456 106.091905,24.1606736 106.091905,24.1183296 L106.091905,21.7851485 C106.091905,21.7428045 106.113077,21.7216325 106.155421,21.7216325 L129.75367,21.7216325 Z M119.247962,15.7771141 C119.290306,15.7771141 119.311478,15.7982861 119.311478,15.8406301 L119.311478,22.8884293 C119.311478,22.9307733 119.290306,22.9519453 119.247962,22.9519453 L116.661129,22.9519453 C116.618785,22.9519453 116.597613,22.9307733 116.597613,22.8884293 L116.597613,15.8406301 C116.597613,15.7982861 116.618785,15.7771141 116.661129,15.7771141 L119.247962,15.7771141 Z M124.606401,17.3769744 C124.648745,17.3769744 124.669917,17.3980089 124.669917,17.440078 L124.669917,19.7101556 C124.669917,19.7524996 124.648745,19.7736716 124.606401,19.7736716 L111.30269,19.7736716 C111.260346,19.7736716 111.239174,19.7524996 111.239174,19.7101556 L111.239174,17.440078 C111.239174,17.3980089 111.260346,17.3769744 111.30269,17.3769744 L124.606401,17.3769744 Z M129.188625,2.20449141 C129.230969,2.20449141 129.252141,2.22552593 129.252141,2.26759495 L129.252141,4.39001857 C129.252141,4.43208759 129.230969,4.45312211 129.188625,4.45312211 L106.720466,4.45312211 C106.678122,4.45312211 106.65695,4.43208759 106.65695,4.39001857 L106.65695,2.26759495 C106.65695,2.22552593 106.678122,2.20449141 106.720466,2.20449141 L129.188625,2.20449141 Z M129.822135,12.8949734 C129.864479,12.8949734 129.885651,12.9160079 129.885651,12.9580769 L129.885651,15.0805005 C129.885651,15.1225695 129.864479,15.1436041 129.822135,15.1436041 L106.086956,15.1436041 C106.044612,15.1436041 106.02344,15.1225695 106.02344,15.0805005 L106.02344,12.9580769 C106.02344,12.9160079 106.044612,12.8949734 106.086956,12.8949734 L129.822135,12.8949734 Z M126.327519,0.504407825 C126.369588,0.504407825 126.390622,0.525579819 126.390622,0.567923806 L126.390622,13.9557727 C126.390622,13.9981167 126.369588,14.0192887 126.327519,14.0192887 L123.782755,14.0192887 C123.740686,14.0192887 123.719652,13.9981167 123.719652,13.9557727 L123.719652,0.567923806 C123.719652,0.525579819 123.740686,0.504407825 123.782755,0.504407825 L126.327519,0.504407825 Z M124.991621,5.85212345 C125.033965,5.85212345 125.055137,5.87329544 125.055137,5.91563943 L125.055137,7.95351255 C125.055137,7.99558158 125.033965,8.01661609 124.991621,8.01661609 L110.91747,8.01661609 C110.875126,8.01661609 110.853954,7.99558158 110.853954,7.95351255 L110.853954,5.91563943 C110.853954,5.87329544 110.875126,5.85212345 110.91747,5.85212345 L124.991621,5.85212345 Z M124.991621,9.33147938 C125.033965,9.33147938 125.055137,9.35251389 125.055137,9.39458292 L125.055137,11.432456 C125.055137,11.4748 125.033965,11.495972 124.991621,11.495972 L110.91747,11.495972 C110.875126,11.495972 110.853954,11.4748 110.853954,11.432456 L110.853954,9.39458292 C110.853954,9.35251389 110.875126,9.33147938 110.91747,9.33147938 L124.991621,9.33147938 Z M112.126336,0.504407825 C112.168405,0.504407825 112.189439,0.525579819 112.189439,0.567923806 L112.189439,13.9557727 C112.189439,13.9981167 112.168405,14.0192887 112.126336,14.0192887 L109.581572,14.0192887 C109.539503,14.0192887 109.518468,13.9981167 109.518468,13.9557727 L109.518468,0.567923806 C109.518468,0.525579819 109.539503,0.504407825 109.581572,0.504407825 L112.126336,0.504407825 Z M112.443091,13.2694702 C112.48186,13.2274012 112.513481,13.2169526 112.537952,13.2381246 L114.348982,14.6948678 C114.387477,14.7267633 114.394488,14.7585212 114.370017,14.7901418 C113.331764,16.0959313 112.147439,17.2643779 110.81704,18.2954815 C109.486642,19.3265851 108.022543,20.1800639 106.424745,20.8559179 C106.393125,20.8770899 106.361367,20.8665039 106.329471,20.8241599 L105.453446,18.6703908 C105.435848,18.6492188 105.431449,18.6324461 105.440247,18.6200729 C105.449046,18.6076997 105.463894,18.5927143 105.484791,18.5751168 C106.920912,17.9592042 108.206492,17.2130977 109.341531,16.3367971 C110.47657,15.4604966 111.510423,14.4380542 112.443091,13.2694702 Z M123.3765,13.2381246 C123.404547,13.2169526 123.436167,13.2274012 123.471362,13.2694702 C124.40403,14.4416287 125.441389,15.4693641 126.583439,16.3526761 C127.725489,17.2359882 129.005776,17.9768017 130.4243,18.5751168 C130.466369,18.6070123 130.476817,18.6387702 130.455645,18.6703908 L129.57962,20.8241599 C129.547724,20.8665039 129.515966,20.8770899 129.484346,20.8559179 C127.882973,20.1624664 126.413582,19.302801 125.076172,18.2769216 C123.738762,17.2510423 122.561516,16.0887823 121.544436,14.7901418 C121.519689,14.7585212 121.526701,14.7267633 121.56547,14.6948678 L123.3765,13.2381246 Z" id="形状"></path>
                <path d="M133.55473,10.2025557 C133.55473,10.1602117 133.575902,10.1390397 133.618246,10.1390397 L140.77658,10.1390397 C140.818924,10.1390397 140.840096,10.1602117 140.840096,10.2025557 L140.840096,23.1944608 C140.840096,23.2368048 140.818924,23.2579768 140.77658,23.2579768 L133.618246,23.2579768 C133.575902,23.2579768 133.55473,23.2368048 133.55473,23.1944608 L133.55473,10.2025557 Z M138.379883,12.7679414 L136.014943,12.7679414 L136.014943,20.6290751 L138.379883,20.6290751 L138.379883,12.7679414 Z M138.132005,3.03308625 C138.152902,3.03666075 138.168644,3.04374099 138.17923,3.05432699 C138.189816,3.06491298 138.193322,3.08079198 138.189747,3.10196397 C137.735786,5.06573512 137.038073,7.02868138 136.096607,8.99080276 C135.15514,10.9529241 133.982294,12.9440539 132.578069,14.964192 C132.560471,14.985364 132.54906,14.9968436 132.543836,14.9986309 C132.538612,15.0004181 132.527201,14.992513 132.509604,14.9749155 L131.390238,11.7335383 C131.37264,11.7159408 131.362948,11.6974497 131.36116,11.6780649 C131.359373,11.6586802 131.367278,11.6384018 131.384876,11.6172298 C132.489944,10.0230062 133.391816,8.48851783 134.090492,7.01376475 C134.789167,5.53901166 135.31448,4.05195407 135.66643,2.55259198 C135.684028,2.53169495 135.69812,2.51945919 135.708706,2.5158847 C135.719292,2.5123102 135.735171,2.5052987 135.756343,2.49485018 L138.132005,3.03308625 Z M144.831291,14.4205942 C144.87336,14.4205942 144.894395,14.4416287 144.894395,14.4836978 L144.894395,21.6478055 L153.795294,21.6478055 L153.795294,14.4836978 C153.795294,14.4416287 153.816466,14.4205942 153.85881,14.4205942 L156.276541,14.4205942 C156.318885,14.4205942 156.340057,14.4416287 156.340057,14.4836978 L156.340057,24.2556726 C156.340057,24.2768446 156.334764,24.2927236 156.324178,24.3033096 C156.313592,24.3138956 156.297713,24.3191886 156.276541,24.3191886 L142.413147,24.3191886 C142.39225,24.3191886 142.376509,24.3138956 142.365923,24.3033096 C142.355337,24.2927236 142.350044,24.2768446 142.350044,24.2556726 L142.350044,14.4836978 C142.350044,14.4416287 142.371078,14.4205942 142.413147,14.4205942 L144.831291,14.4205942 Z M141.014146,1.43900011 C141.05649,1.43900011 141.077662,1.46003463 141.077662,1.50210365 L141.077662,4.0468673 C141.077662,4.08893632 141.05649,4.10997084 141.014146,4.10997084 L132.298434,4.10997084 C132.25609,4.10997084 132.234918,4.08893632 132.234918,4.0468673 L132.234918,1.50210365 C132.234918,1.46003463 132.25609,1.43900011 132.298434,1.43900011 L141.014146,1.43900011 Z M150.543193,0.578234842 C150.585537,0.578234842 150.606709,0.599406835 150.606709,0.641750823 L150.606709,22.9201873 C150.606709,22.9622563 150.585537,22.9832908 150.543193,22.9832908 L148.125461,22.9832908 C148.083117,22.9832908 148.061945,22.9622563 148.061945,22.9201873 L148.061945,0.641750823 C148.061945,0.599406835 148.083117,0.578234842 148.125461,0.578234842 L150.543193,0.578234842 Z M145.031738,2.29935294 C145.074082,2.29935294 145.095254,2.32052494 145.095254,2.36286892 L145.095254,9.17310187 L153.615881,9.17310187 L153.615881,2.36286892 C153.615881,2.32052494 153.637053,2.29935294 153.679397,2.29935294 L156.097129,2.29935294 C156.139473,2.29935294 156.160645,2.32052494 156.160645,2.36286892 L156.160645,11.7809691 C156.160645,11.802141 156.155352,11.8179513 156.144766,11.8283998 C156.13418,11.8388483 156.118301,11.8440726 156.097129,11.8440726 L142.614006,11.8440726 C142.592834,11.8440726 142.576955,11.8388483 142.566369,11.8283998 C142.555783,11.8179513 142.55049,11.802141 142.55049,11.7809691 L142.55049,2.36286892 C142.55049,2.32052494 142.571662,2.29935294 142.614006,2.29935294 L145.031738,2.29935294 Z" id="形状"></path>
                <path d="M166.138428,17.8731415 C166.180497,17.8379465 166.210331,17.8397337 166.227928,17.8785032 L167.980804,19.3884513 C168.015999,19.4164973 168.021223,19.4393191 167.996477,19.4569166 L165.166716,22.0701455 L178.164396,22.0701455 L178.164396,20.5338012 C178.164396,20.4917321 178.185568,20.4706976 178.227912,20.4706976 L180.730194,20.4706976 C180.772263,20.4706976 180.793297,20.4917321 180.793297,20.5338012 L180.793297,24.2556726 C180.793297,24.2768446 180.788073,24.2927236 180.777625,24.3033096 C180.767176,24.3138956 180.751366,24.3191886 180.730194,24.3191886 L159.496884,24.3191886 C159.475712,24.3191886 159.46162,24.318295 159.454609,24.3165078 C159.447597,24.3147205 159.45289,24.3050281 159.470488,24.2874306 L166.138428,17.8731415 Z M158.937201,17.5720592 C158.937201,17.5299902 158.958373,17.5089557 159.000717,17.5089557 L182.493381,17.5089557 C182.535725,17.5089557 182.556897,17.5299902 182.556897,17.5720592 L182.556897,19.6944828 C182.556897,19.7368268 182.535725,19.7579988 182.493381,19.7579988 L159.000717,19.7579988 C158.958373,19.7579988 158.937201,19.7368268 158.937201,19.6944828 L158.937201,17.5720592 Z M162.748985,7.34639876 C162.748985,7.32522677 162.754278,7.30934777 162.764864,7.29876178 C162.77545,7.28817578 162.791329,7.28288278 162.812501,7.28288278 L178.291015,7.28288278 C178.333359,7.28288278 178.354531,7.30405478 178.354531,7.34639876 L178.354531,9.46840994 C178.354531,9.51075392 178.333359,9.53192592 178.291015,9.53192592 L165.420368,9.53192592 L165.420368,18.5701675 C165.420368,18.6122365 165.399196,18.633271 165.356852,18.633271 L162.812501,18.633271 C162.770157,18.633271 162.748985,18.6122365 162.748985,18.5701675 L162.748985,7.34639876 Z M164.08447,10.8517385 C164.08447,10.8093945 164.105642,10.7882225 164.147986,10.7882225 L179.130333,10.7882225 C179.172677,10.7882225 179.193849,10.8093945 179.193849,10.8517385 L179.193849,12.8471302 C179.193849,12.8894741 179.172677,12.9106461 179.130333,12.9106461 L164.147986,12.9106461 C164.105642,12.9106461 164.08447,12.8894741 164.08447,12.8471302 L164.08447,10.8517385 Z M164.08447,14.2040625 C164.08447,14.1617185 164.105642,14.1405465 164.147986,14.1405465 L179.130333,14.1405465 C179.172677,14.1405465 179.193849,14.1617185 179.193849,14.2040625 L179.193849,16.1994541 C179.193849,16.2417981 179.172677,16.2629701 179.130333,16.2629701 L164.147986,16.2629701 C164.105642,16.2629701 164.08447,16.2417981 164.08447,16.1994541 L164.08447,14.2040625 Z M172.035103,0.842197359 C172.081022,0.873817869 172.093395,0.905575859 172.072223,0.93747133 C171.090338,3.40799552 169.50835,5.47302103 167.32626,7.13254788 C165.144169,8.79207473 162.44639,10.0599884 159.232921,10.936289 C159.204875,10.9538865 159.175042,10.9415133 159.143422,10.8991693 L158.488465,8.65012613 C158.470867,8.62208012 158.48324,8.59224685 158.525584,8.56062634 C161.401126,7.78633629 163.750392,6.70759572 165.573384,5.32440464 C167.396375,3.94121355 168.731998,2.17974493 169.580252,0.0399987714 C169.611873,0.00122927666 169.641843,-0.00935672013 169.670164,0.00824078103 L172.035103,0.842197359 Z M159.465126,2.51052296 C159.465126,2.46817897 159.486298,2.44700698 159.528642,2.44700698 L181.965456,2.44700698 C182.0078,2.44700698 182.028972,2.46817897 182.028972,2.51052296 L182.028972,4.80163512 C182.028972,4.84397911 182.0078,4.8651511 181.965456,4.8651511 L159.528642,4.8651511 C159.486298,4.8651511 159.465126,4.84397911 159.465126,4.80163512 L159.465126,2.51052296 Z M173.096315,2.8116052 C173.121062,2.79043321 173.152682,2.79923196 173.191177,2.83800146 C174.222555,4.22105506 175.53625,5.37451627 177.132261,6.29838508 C178.728272,7.22225389 180.666678,7.97633431 182.947479,8.56062634 C182.989548,8.59224685 183.001784,8.62208012 182.984186,8.65012613 L182.372123,10.8991693 C182.354526,10.9274902 182.324555,10.946875 182.282211,10.9573235 C179.744596,10.292193 177.527311,9.4053064 175.630355,8.29666382 C173.7334,7.18802125 172.195406,5.84703667 171.016373,4.27371008 C170.991627,4.24923856 170.998638,4.2194053 171.037408,4.18421029 L173.096315,2.8116052 Z" id="形状"></path>
                <path d="M202.533498,0.567923806 C202.575567,0.567923806 202.596601,0.588958319 202.596601,0.631027345 L202.596601,24.6516164 C202.596601,24.6939604 202.575567,24.7151324 202.533498,24.7151324 L199.946665,24.7151324 C199.904321,24.7151324 199.883149,24.6939604 199.883149,24.6516164 L199.883149,0.631027345 C199.883149,0.588958319 199.904321,0.567923806 199.946665,0.567923806 L202.533498,0.567923806 Z M209.195664,14.9274847 C209.238008,14.9274847 209.25918,14.9485193 209.25918,14.9905883 L209.25918,17.5353519 C209.25918,17.577421 209.238008,17.5984555 209.195664,17.5984555 L192.344545,17.5984555 C192.302201,17.5984555 192.281029,17.577421 192.281029,17.5353519 L192.281029,14.9905883 C192.281029,14.9485193 192.302201,14.9274847 192.344545,14.9274847 L209.195664,14.9274847 Z M195.855246,2.47340323 C195.897315,2.47340323 195.91835,2.49457522 195.91835,2.53691921 L195.91835,5.23469862 L208.609997,5.23469862 C208.652066,5.23469862 208.673101,5.25573314 208.673101,5.29780216 L208.673101,7.80049678 C208.673101,7.84256581 208.652066,7.86360032 208.609997,7.86360032 L193.373998,7.86360032 C193.331654,7.86360032 193.310482,7.84256581 193.310482,7.80049678 L193.310482,2.53691921 C193.310482,2.49457522 193.331654,2.47340323 193.373998,2.47340323 L195.855246,2.47340323 Z M190.602392,9.41066814 C190.644461,9.41066814 190.665495,9.43170265 190.665495,9.47377168 L190.665495,24.6726509 C190.665495,24.7149949 190.644461,24.7361669 190.602392,24.7361669 L188.015559,24.7361669 C187.973215,24.7361669 187.952043,24.7149949 187.952043,24.6726509 L187.952043,9.47377168 C187.952043,9.43170265 187.973215,9.41066814 188.015559,9.41066814 L190.602392,9.41066814 Z M192.645214,1.15895238 C192.666386,1.17654988 192.682265,1.19064163 192.692851,1.20122763 C192.703437,1.21181362 192.699932,1.22769262 192.682334,1.24886461 C190.897837,6.41538097 188.689351,11.235309 186.056875,15.7086488 C186.039277,15.7298208 186.027866,15.7413004 186.022642,15.7430877 C186.017418,15.7448749 186.00422,15.7369698 185.983048,15.7193723 L184.26193,13.2484357 C184.240758,13.2308382 184.229278,13.212347 184.227491,13.1929623 C184.225704,13.1735776 184.233609,13.1534367 184.251206,13.1325396 C185.45856,11.0840805 186.551461,9.00578813 187.529909,6.89766248 C188.508358,4.78953684 189.381153,2.6320557 190.148294,0.42521907 C190.165891,0.404047077 190.179983,0.388168081 190.190569,0.377582085 C190.201155,0.366996088 190.217034,0.37050184 190.238206,0.388099341 L192.645214,1.15895238 Z" id="形状"></path>
            </g>
            <g id="编组-2" transform="translate(-0, 0)">
                <rect id="矩形" fill="#0052D9" x="0" y="0" width="75.8892237" height="75.8892237" rx="17"></rect>
                <g id="编组" transform="translate(28.046, 6.5991)" fill="#FFFFFF">
                    <rect id="矩形" x="1.64976573" y="23.0967203" width="16.4976573" height="16.4976573" rx="8.24882867"></rect>
                    <polygon id="矩形" points="0 40.1442995 9.8985944 47.4520436 19.7971888 40.1442995 19.7971888 56.6285144 9.8985944 62.6910979 7.4866973e-15 56.6285144"></polygon>
                    <polygon id="矩形" points="1.04434274e-15 0 9.8985944 7.30774404 19.7971888 0 19.7971888 22.5467984 9.8985944 14.6309775 3.709006e-15 22.5467984"></polygon>
                </g>
            </g>
        </g>
    </g>
</svg>
